<svg xmlns="http://www.w3.org/2000/svg" xmlns:xlink="http://www.w3.org/1999/xlink" width="1000" zoomAndPan="magnify" viewBox="0 0 750 225" height="300" preserveAspectRatio="xMidYMid meet" version="1.0"><defs><g/></defs><g fill="#ffffff" fill-opacity="1"><g transform="translate(8.097656, 159.61017)"><g><path d="M 78.390625 0 L 63.46875 -52.375 L 48.53125 0 L 24.890625 0 L -1.703125 -93.328125 L 21.953125 -93.328125 L 37.890625 -29.296875 L 38.46875 -29.296875 L 55.4375 -93.328125 L 71.5 -93.328125 L 88.46875 -29.296875 L 89.03125 -29.296875 L 104.984375 -93.328125 L 128.515625 -93.328125 L 101.921875 0 Z M 78.390625 0 "/></g></g></g><g fill="#ffffff" fill-opacity="1"><g transform="translate(134.906391, 159.61017)"><g><path d="M 65.5 -26.25 L 23.421875 -26.25 C 23.421875 -22.175781 24.738281 -19.15625 27.375 -17.1875 C 30.007812 -15.226562 32.875 -14.25 35.96875 -14.25 C 39.21875 -14.25 41.785156 -14.679688 43.671875 -15.546875 C 45.554688 -16.421875 47.703125 -18.140625 50.109375 -20.703125 L 64.59375 -13.46875 C 58.5625 -3.351562 48.53125 1.703125 34.5 1.703125 C 25.75 1.703125 18.242188 -1.296875 11.984375 -7.296875 C 5.734375 -13.296875 2.609375 -20.515625 2.609375 -28.953125 C 2.609375 -37.398438 5.734375 -44.640625 11.984375 -50.671875 C 18.242188 -56.710938 25.75 -59.734375 34.5 -59.734375 C 43.695312 -59.734375 51.179688 -57.070312 56.953125 -51.75 C 62.722656 -46.4375 65.609375 -38.835938 65.609375 -28.953125 C 65.609375 -27.597656 65.570312 -26.695312 65.5 -26.25 Z M 23.984375 -37.328125 L 46.046875 -37.328125 C 45.585938 -40.347656 44.394531 -42.664062 42.46875 -44.28125 C 40.550781 -45.90625 38.082031 -46.71875 35.0625 -46.71875 C 31.75 -46.71875 29.109375 -45.847656 27.140625 -44.109375 C 25.179688 -42.378906 24.128906 -40.117188 23.984375 -37.328125 Z M 23.984375 -37.328125 "/></g></g></g><g fill="#ffffff" fill-opacity="1"><g transform="translate(203.118405, 159.61017)"><g><path d="M 66.515625 -50.796875 C 71.941406 -44.835938 74.65625 -37.554688 74.65625 -28.953125 C 74.65625 -20.359375 71.941406 -13.097656 66.515625 -7.171875 C 61.085938 -1.253906 54.1875 1.703125 45.8125 1.703125 C 38.125 1.703125 31.789062 -1.050781 26.8125 -6.5625 L 26.578125 -6.5625 L 26.578125 0 L 6.78125 0 L 6.78125 -97.28125 L 26.8125 -97.28125 L 26.8125 -52.484375 C 31.789062 -57.316406 38.125 -59.734375 45.8125 -59.734375 C 54.1875 -59.734375 61.085938 -56.753906 66.515625 -50.796875 Z M 49.65625 -19.171875 C 52.144531 -21.703125 53.390625 -24.960938 53.390625 -28.953125 C 53.390625 -32.953125 52.085938 -36.234375 49.484375 -38.796875 C 46.890625 -41.359375 43.664062 -42.640625 39.8125 -42.640625 C 36.039062 -42.640625 32.851562 -41.359375 30.25 -38.796875 C 27.65625 -36.234375 26.359375 -32.953125 26.359375 -28.953125 C 26.359375 -25.035156 27.617188 -21.796875 30.140625 -19.234375 C 32.671875 -16.671875 35.894531 -15.390625 39.8125 -15.390625 C 43.882812 -15.390625 47.164062 -16.648438 49.65625 -19.171875 Z M 49.65625 -19.171875 "/></g></g></g><g fill="#ffca0f" fill-opacity="1"><g transform="translate(280.382801, 159.61017)"><g><path d="M 6.78125 -93.328125 L 33.828125 -93.328125 C 46.796875 -93.328125 57.878906 -88.894531 67.078125 -80.03125 C 76.285156 -71.175781 80.890625 -60.070312 80.890625 -46.71875 C 80.890625 -33.289062 76.304688 -22.144531 67.140625 -13.28125 C 57.972656 -4.425781 46.867188 0 33.828125 0 L 6.78125 0 Z M 28.0625 -19 L 31.328125 -19 C 39.097656 -19 45.453125 -21.617188 50.390625 -26.859375 C 55.335938 -32.109375 57.847656 -38.691406 57.921875 -46.609375 C 57.921875 -54.523438 55.445312 -61.125 50.5 -66.40625 C 45.5625 -71.6875 39.171875 -74.328125 31.328125 -74.328125 L 28.0625 -74.328125 Z M 28.0625 -19 "/></g></g></g><g fill="#ffca0f" fill-opacity="1"><g transform="translate(363.866165, 159.61017)"><g><path d="M 65.5 -26.25 L 23.421875 -26.25 C 23.421875 -22.175781 24.738281 -19.15625 27.375 -17.1875 C 30.007812 -15.226562 32.875 -14.25 35.96875 -14.25 C 39.21875 -14.25 41.785156 -14.679688 43.671875 -15.546875 C 45.554688 -16.421875 47.703125 -18.140625 50.109375 -20.703125 L 64.59375 -13.46875 C 58.5625 -3.351562 48.53125 1.703125 34.5 1.703125 C 25.75 1.703125 18.242188 -1.296875 11.984375 -7.296875 C 5.734375 -13.296875 2.609375 -20.515625 2.609375 -28.953125 C 2.609375 -37.398438 5.734375 -44.640625 11.984375 -50.671875 C 18.242188 -56.710938 25.75 -59.734375 34.5 -59.734375 C 43.695312 -59.734375 51.179688 -57.070312 56.953125 -51.75 C 62.722656 -46.4375 65.609375 -38.835938 65.609375 -28.953125 C 65.609375 -27.597656 65.570312 -26.695312 65.5 -26.25 Z M 23.984375 -37.328125 L 46.046875 -37.328125 C 45.585938 -40.347656 44.394531 -42.664062 42.46875 -44.28125 C 40.550781 -45.90625 38.082031 -46.71875 35.0625 -46.71875 C 31.75 -46.71875 29.109375 -45.847656 27.140625 -44.109375 C 25.179688 -42.378906 24.128906 -40.117188 23.984375 -37.328125 Z M 23.984375 -37.328125 "/></g></g></g><g fill="#ffca0f" fill-opacity="1"><g transform="translate(432.078179, 159.61017)"><g><path d="M 21.5 -58.03125 L 35.640625 -26.46875 L 49.78125 -58.03125 L 73.53125 -58.03125 L 42.421875 0 L 28.84375 0 L -2.265625 -58.03125 Z M 21.5 -58.03125 "/></g></g></g><g fill="#ffffff" fill-opacity="1"><g transform="translate(503.355452, 159.61017)"><g><path d="M 28.0625 -37.4375 L 28.0625 0 L 6.78125 0 L 6.78125 -93.328125 L 28.0625 -93.328125 L 28.0625 -56.109375 L 58.140625 -56.109375 L 58.140625 -93.328125 L 79.40625 -93.328125 L 79.40625 0 L 58.140625 0 L 58.140625 -37.4375 Z M 28.0625 -37.4375 "/></g></g></g><g fill="#ffffff" fill-opacity="1"><g transform="translate(589.55372, 159.61017)"><g><path d="M 25.671875 -58.03125 L 25.671875 -30.4375 C 25.671875 -24.695312 26.539062 -20.617188 28.28125 -18.203125 C 30.019531 -15.796875 32.960938 -14.59375 37.109375 -14.59375 C 41.253906 -14.59375 44.191406 -15.796875 45.921875 -18.203125 C 47.660156 -20.617188 48.53125 -24.695312 48.53125 -30.4375 L 48.53125 -58.03125 L 68.546875 -58.03125 L 68.546875 -25.5625 C 68.546875 -15.914062 66.039062 -8.957031 61.03125 -4.6875 C 56.019531 -0.425781 48.046875 1.703125 37.109375 1.703125 C 26.171875 1.703125 18.191406 -0.425781 13.171875 -4.6875 C 8.160156 -8.957031 5.65625 -15.914062 5.65625 -25.5625 L 5.65625 -58.03125 Z M 25.671875 -58.03125 "/></g></g></g><g fill="#ffffff" fill-opacity="1"><g transform="translate(663.761157, 159.61017)"><g><path d="M 66.515625 -50.796875 C 71.941406 -44.835938 74.65625 -37.554688 74.65625 -28.953125 C 74.65625 -20.359375 71.941406 -13.097656 66.515625 -7.171875 C 61.085938 -1.253906 54.1875 1.703125 45.8125 1.703125 C 38.125 1.703125 31.789062 -1.050781 26.8125 -6.5625 L 26.578125 -6.5625 L 26.578125 0 L 6.78125 0 L 6.78125 -97.28125 L 26.8125 -97.28125 L 26.8125 -52.484375 C 31.789062 -57.316406 38.125 -59.734375 45.8125 -59.734375 C 54.1875 -59.734375 61.085938 -56.753906 66.515625 -50.796875 Z M 49.65625 -19.171875 C 52.144531 -21.703125 53.390625 -24.960938 53.390625 -28.953125 C 53.390625 -32.953125 52.085938 -36.234375 49.484375 -38.796875 C 46.890625 -41.359375 43.664062 -42.640625 39.8125 -42.640625 C 36.039062 -42.640625 32.851562 -41.359375 30.25 -38.796875 C 27.65625 -36.234375 26.359375 -32.953125 26.359375 -28.953125 C 26.359375 -25.035156 27.617188 -21.796875 30.140625 -19.234375 C 32.671875 -16.671875 35.894531 -15.390625 39.8125 -15.390625 C 43.882812 -15.390625 47.164062 -16.648438 49.65625 -19.171875 Z M 49.65625 -19.171875 "/></g></g></g></svg>