<svg xmlns="http://www.w3.org/2000/svg" xmlns:xlink="http://www.w3.org/1999/xlink" width="500" zoomAndPan="magnify" viewBox="0 0 375 374.999991" height="500" preserveAspectRatio="xMidYMid meet" version="1.0"><defs><clipPath id="5dd85f6257"><path d="M 0 22.03125 L 375 22.03125 L 375 375 L 0 375 Z M 0 22.03125 " clip-rule="nonzero"/></clipPath></defs><g clip-path="url(#5dd85f6257)"><path fill="#66e5fb" d="M 128.878906 318.007812 C 127.863281 318.984375 126.335938 318.984375 125.324219 318.007812 C 124.34375 316.992188 124.34375 315.464844 125.324219 314.453125 C 126.183594 313.621094 127.40625 313.492188 128.375 314.066406 L 161.398438 281.046875 L 299.148438 281.046875 L 314.972656 265.226562 L 347.644531 265.226562 C 347.929688 264.136719 348.90625 263.335938 350.074219 263.335938 C 351.457031 263.335938 352.589844 264.46875 352.589844 265.847656 C 352.589844 267.226562 351.457031 268.359375 350.074219 268.359375 C 348.90625 268.359375 347.917969 267.554688 347.644531 266.46875 L 315.492188 266.46875 L 299.671875 282.289062 L 161.917969 282.289062 L 129.261719 314.945312 C 129.839844 315.921875 129.710938 317.15625 128.878906 318.007812 M 96.523438 372.953125 C 94.585938 374.894531 91.414062 374.894531 89.46875 372.953125 C 87.53125 371.015625 87.53125 367.847656 89.46875 365.898438 C 91.105469 364.261719 93.617188 364.007812 95.527344 365.132812 L 156.664062 303.996094 L 227.941406 303.996094 L 245.492188 321.542969 L 326.550781 321.542969 C 327.109375 319.398438 329.0625 317.804688 331.375 317.804688 C 334.117188 317.804688 336.367188 320.046875 336.367188 322.796875 C 336.367188 325.539062 334.128906 327.785156 331.375 327.785156 C 329.0625 327.785156 327.109375 326.195312 326.550781 324.046875 L 244.457031 324.046875 L 226.910156 306.5 L 157.695312 306.5 L 97.292969 366.90625 C 98.414062 368.804688 98.160156 371.320312 96.523438 372.953125 Z M 164.84375 297.425781 C 163.460938 297.425781 162.328125 296.292969 162.328125 294.910156 C 162.328125 293.53125 163.460938 292.398438 164.84375 292.398438 C 166.011719 292.398438 167 293.203125 167.273438 294.289062 L 259.21875 294.289062 L 271.867188 306.9375 L 370.074219 306.9375 C 370.347656 305.851562 371.335938 305.046875 372.503906 305.046875 C 373.886719 305.046875 375.019531 306.179688 375.019531 307.5625 C 375.019531 308.941406 373.886719 310.074219 372.503906 310.074219 C 371.335938 310.074219 370.347656 309.269531 370.074219 308.183594 L 271.355469 308.183594 L 258.707031 295.53125 L 167.273438 295.53125 C 167 296.613281 166.011719 297.425781 164.84375 297.425781 Z M 7.53125 352.308594 C 3.410156 352.308594 0.0546875 348.945312 0.0546875 344.832031 C 0.0546875 340.71875 3.417969 337.355469 7.53125 337.355469 C 11.003906 337.355469 13.9375 339.75 14.769531 342.96875 L 83.609375 342.96875 L 98.78125 327.796875 L 98.78125 258.058594 L 124.464844 232.378906 L 216.601562 232.378906 L 229.449219 245.226562 L 261.347656 245.226562 C 262.179688 242.011719 265.113281 239.617188 268.585938 239.617188 C 272.699219 239.617188 276.0625 242.980469 276.0625 247.09375 C 276.0625 251.207031 272.699219 254.570312 268.585938 254.570312 C 265.113281 254.570312 262.179688 252.175781 261.347656 248.957031 L 227.898438 248.957031 L 215.046875 236.105469 L 126.007812 236.105469 L 102.519531 259.597656 L 102.519531 329.332031 L 85.152344 346.695312 L 14.761719 346.695312 C 13.9375 349.914062 11.003906 352.308594 7.53125 352.308594 Z M 7.53125 335.164062 C 6.152344 335.164062 5.019531 334.027344 5.019531 332.648438 C 5.019531 331.269531 6.152344 330.136719 7.53125 330.136719 C 8.699219 330.136719 9.6875 330.941406 9.960938 332.027344 L 69.398438 332.027344 L 80.0625 321.363281 L 80.0625 267.511719 L 136.054688 211.519531 L 217.25 211.519531 L 237.859375 232.132812 L 288.59375 232.132812 C 288.867188 231.042969 289.855469 230.238281 291.023438 230.238281 C 292.40625 230.238281 293.539062 231.371094 293.539062 232.753906 C 293.539062 234.132812 292.40625 235.265625 291.023438 235.265625 C 289.855469 235.265625 288.867188 234.460938 288.59375 233.375 L 237.347656 233.375 L 216.738281 212.765625 L 136.582031 212.765625 L 81.324219 268.023438 L 81.324219 321.875 L 69.917969 333.269531 L 9.960938 333.269531 C 9.6875 334.359375 8.699219 335.164062 7.53125 335.164062 Z M 7.53125 321.324219 C 6.152344 321.324219 5.019531 320.191406 5.019531 318.8125 C 5.019531 317.433594 6.152344 316.296875 7.53125 316.296875 C 8.699219 316.296875 9.6875 317.101562 9.960938 318.191406 L 55.570312 318.191406 L 63.101562 310.660156 L 63.101562 285.980469 L 50.671875 273.550781 L 126.8125 197.410156 L 126.8125 167.121094 L 170.519531 123.414062 C 169.941406 122.445312 170.070312 121.210938 170.902344 120.363281 C 171.917969 119.382812 173.441406 119.382812 174.457031 120.363281 C 175.4375 121.378906 175.4375 122.902344 174.457031 123.917969 C 173.597656 124.75 172.375 124.878906 171.40625 124.300781 L 128.066406 167.640625 L 128.066406 197.929688 L 52.433594 273.5625 L 64.351562 285.480469 L 64.351562 311.1875 L 56.089844 319.453125 L 9.972656 319.453125 C 9.6875 320.519531 8.699219 321.324219 7.53125 321.324219 Z M 7.53125 305.25 C 6.152344 305.25 5.019531 304.113281 5.019531 302.734375 C 5.019531 301.355469 6.152344 300.222656 7.53125 300.222656 C 8.699219 300.222656 9.6875 301.027344 9.960938 302.113281 L 20.949219 302.113281 L 36.3125 284.738281 L 36.3125 259.101562 L 99.59375 195.820312 L 99.59375 122.949219 L 75.988281 99.339844 L 75.988281 27.148438 C 74.898438 26.871094 74.09375 25.886719 74.09375 24.714844 C 74.09375 23.335938 75.226562 22.203125 76.609375 22.203125 C 77.988281 22.203125 79.121094 23.335938 79.121094 24.714844 C 79.121094 25.886719 78.316406 26.871094 77.230469 27.148438 L 77.230469 98.820312 L 100.835938 122.429688 L 100.835938 196.332031 L 37.554688 259.613281 L 37.554688 285.207031 L 21.503906 303.355469 L 9.960938 303.355469 C 9.6875 304.445312 8.699219 305.25 7.53125 305.25 Z M 9.304688 247.859375 C 8.289062 248.839844 6.761719 248.839844 5.75 247.859375 C 4.769531 246.847656 4.769531 245.320312 5.75 244.304688 C 6.609375 243.472656 7.832031 243.34375 8.800781 243.921875 L 64.042969 188.679688 L 64.042969 92.210938 C 62.953125 91.9375 62.148438 90.949219 62.148438 89.78125 C 62.148438 88.402344 63.28125 87.269531 64.664062 87.269531 C 66.042969 87.269531 67.175781 88.402344 67.175781 89.78125 C 67.175781 90.949219 66.371094 91.9375 65.285156 92.210938 L 65.285156 189.203125 L 9.679688 244.808594 C 10.265625 245.777344 10.136719 247 9.304688 247.859375 Z M 9.304688 182.421875 C 8.289062 183.398438 6.761719 183.398438 5.75 182.421875 C 4.769531 181.40625 4.769531 179.878906 5.75 178.867188 C 6.609375 178.035156 7.832031 177.90625 8.800781 178.480469 L 38.613281 148.667969 L 38.613281 69.398438 C 37.527344 69.117188 36.722656 68.136719 36.722656 66.96875 C 36.722656 65.589844 37.855469 64.457031 39.238281 64.457031 C 40.617188 64.457031 41.75 65.589844 41.75 66.96875 C 41.75 68.136719 40.945312 69.125 39.859375 69.398438 L 39.859375 149.1875 L 9.679688 179.367188 C 10.265625 180.335938 10.136719 181.5625 9.304688 182.421875 Z M 11.058594 272.417969 C 9.121094 274.355469 5.949219 274.355469 4.003906 272.417969 C 2.066406 270.480469 2.066406 267.308594 4.003906 265.363281 C 5.640625 263.726562 8.152344 263.472656 10.0625 264.59375 L 79.3125 195.34375 L 79.3125 137.984375 C 77.167969 137.425781 75.574219 135.46875 75.574219 133.15625 C 75.574219 130.417969 77.816406 128.167969 80.566406 128.167969 C 83.308594 128.167969 85.554688 130.40625 85.554688 133.15625 C 85.554688 135.46875 83.964844 137.425781 81.816406 137.984375 L 81.816406 196.375 L 11.835938 266.359375 C 12.949219 268.269531 12.695312 270.78125 11.058594 272.417969 Z M 7.53125 362.117188 C 6.152344 362.117188 5.019531 360.980469 5.019531 359.601562 C 5.019531 358.222656 6.152344 357.089844 7.53125 357.089844 C 8.699219 357.089844 9.6875 357.894531 9.960938 358.980469 L 93.863281 358.980469 L 116.867188 335.976562 L 116.867188 301.757812 L 159.394531 259.230469 L 251.359375 259.230469 C 251.632812 258.144531 252.621094 257.339844 253.789062 257.339844 C 255.171875 257.339844 256.304688 258.472656 256.304688 259.851562 C 256.304688 261.230469 255.171875 262.363281 253.789062 262.363281 C 252.621094 262.363281 251.632812 261.5625 251.359375 260.472656 L 159.917969 260.472656 L 118.121094 302.269531 L 118.121094 336.488281 L 94.386719 360.222656 L 9.972656 360.222656 C 9.6875 361.300781 8.699219 362.117188 7.53125 362.117188 Z M 7.53125 362.117188 " fill-opacity="1" fill-rule="nonzero"/></g></svg>