<svg xmlns="http://www.w3.org/2000/svg" xmlns:xlink="http://www.w3.org/1999/xlink" width="750" zoomAndPan="magnify" viewBox="0 0 562.5 562.499982" height="750" preserveAspectRatio="xMidYMid meet" version="1.0"><defs><clipPath id="47122ad578"><path d="M 40 114 L 562 114 L 562 562 L 40 562 Z M 40 114 " clip-rule="nonzero"/></clipPath><clipPath id="1aeb6132f0"><path d="M 192.15625 163 L 562 163 L 562 482.140625 L 192.15625 482.140625 Z M 192.15625 163 " clip-rule="nonzero"/></clipPath></defs><g clip-path="url(#47122ad578)"><path fill="#ffca0f" d="M 261.96875 114.960938 C 237.058594 134.511719 212.144531 154.054688 187.230469 173.601562 C 147.585938 204.707031 107.941406 235.808594 68.296875 266.910156 C 59.285156 273.980469 50.273438 281.050781 41.261719 288.125 C 40.109375 289.027344 40.464844 290.785156 41.261719 291.738281 C 48.789062 300.738281 56.3125 309.742188 63.839844 318.738281 C 81.910156 340.351562 99.980469 361.964844 118.046875 383.574219 C 139.8125 409.605469 161.578125 435.632812 183.339844 461.667969 C 202.242188 484.273438 221.148438 506.882812 240.050781 529.488281 C 246.265625 536.921875 252.472656 544.351562 258.6875 551.777344 C 261.601562 555.265625 264.339844 559.332031 267.625 562.472656 C 267.773438 562.605469 267.890625 562.785156 268.019531 562.941406 C 268.917969 564.015625 270.707031 563.828125 271.636719 562.941406 C 281.21875 553.761719 290.800781 544.582031 300.386719 535.402344 C 323.398438 513.363281 346.410156 491.324219 369.425781 469.285156 C 397.160156 442.726562 424.890625 416.167969 452.628906 389.601562 C 476.703125 366.546875 500.777344 343.496094 524.851562 320.433594 C 532.769531 312.851562 540.6875 305.273438 548.605469 297.691406 C 552.351562 294.101562 556.539062 290.679688 559.984375 286.789062 C 560.136719 286.621094 560.320312 286.472656 560.484375 286.316406 C 561.664062 285.183594 561.375 283.101562 559.964844 282.296875 C 550.195312 276.742188 540.425781 271.183594 530.660156 265.628906 C 507.195312 252.28125 483.730469 238.9375 460.273438 225.59375 C 431.878906 209.445312 403.488281 193.292969 375.097656 177.144531 C 350.542969 163.179688 325.992188 149.214844 301.4375 135.25 C 293.367188 130.65625 285.292969 126.0625 277.21875 121.472656 C 273.386719 119.292969 269.585938 116.714844 265.585938 114.851562 C 265.410156 114.769531 265.242188 114.65625 265.070312 114.558594 C 262.207031 112.929688 259.625 117.351562 262.488281 118.976562 C 272.257812 124.535156 282.027344 130.089844 291.792969 135.644531 C 315.257812 148.992188 338.71875 162.335938 362.183594 175.6875 C 390.574219 191.835938 418.964844 207.980469 447.355469 224.128906 C 471.910156 238.097656 496.464844 252.0625 521.015625 266.03125 C 529.089844 270.617188 537.160156 275.210938 545.234375 279.804688 C 547.792969 281.261719 550.351562 282.714844 552.914062 284.175781 C 554.082031 284.839844 555.558594 286.078125 556.871094 286.421875 C 557.042969 286.464844 557.226562 286.625 557.382812 286.714844 C 557.210938 285.375 557.039062 284.035156 556.867188 282.699219 C 547.28125 291.878906 537.699219 301.054688 528.113281 310.234375 C 505.101562 332.273438 482.085938 354.308594 459.074219 376.351562 C 431.339844 402.910156 403.605469 429.472656 375.875 456.03125 C 351.796875 479.089844 327.722656 502.144531 303.644531 525.203125 C 295.730469 532.78125 287.8125 540.363281 279.894531 547.945312 C 277.378906 550.355469 274.863281 552.765625 272.347656 555.175781 C 271.183594 556.292969 269.40625 557.488281 268.515625 558.84375 C 268.398438 559.019531 268.175781 559.175781 268.019531 559.324219 C 269.222656 559.324219 270.429688 559.324219 271.636719 559.324219 C 264.109375 550.320312 256.582031 541.320312 249.054688 532.320312 C 230.988281 510.710938 212.921875 489.097656 194.851562 467.488281 C 173.085938 441.457031 151.320312 415.425781 129.554688 389.394531 C 110.652344 366.785156 91.75 344.179688 72.851562 321.570312 C 66.636719 314.144531 60.421875 306.710938 54.210938 299.28125 C 52.25 296.941406 50.296875 294.601562 48.339844 292.261719 C 47.425781 291.171875 46.4375 289.425781 45.269531 288.589844 C 45.121094 288.480469 45 288.265625 44.878906 288.125 C 44.878906 289.328125 44.878906 290.53125 44.878906 291.738281 C 69.792969 272.195312 94.710938 252.644531 119.621094 233.097656 C 159.261719 201.996094 198.90625 170.890625 238.550781 139.789062 C 247.5625 132.71875 256.578125 125.648438 265.589844 118.578125 C 268.175781 116.546875 264.53125 112.949219 261.96875 114.960938 " fill-opacity="1" fill-rule="nonzero"/></g><path fill="#ffca0f" d="M 96.53125 131.113281 C 97.449219 142.152344 98.363281 153.195312 99.28125 164.242188 C 101.492188 190.90625 103.703125 217.570312 105.917969 244.238281 C 108.585938 276.363281 111.246094 308.488281 113.914062 340.617188 C 116.21875 368.394531 118.523438 396.179688 120.828125 423.957031 C 121.585938 433.128906 122.347656 442.296875 123.109375 451.464844 C 123.460938 455.71875 123.328125 460.394531 124.199219 464.582031 C 124.238281 464.769531 124.230469 464.980469 124.246094 465.175781 C 124.292969 465.746094 124.613281 466.246094 125.1875 466.410156 C 155.40625 474.957031 185.625 483.503906 215.847656 492.050781 C 263.820312 505.613281 311.792969 519.183594 359.773438 532.75 C 370.765625 535.859375 381.761719 538.96875 392.757812 542.078125 C 393.464844 542.28125 394.089844 541.832031 394.328125 541.1875 C 398.558594 529.761719 402.78125 518.335938 407.011719 506.914062 C 417.105469 479.621094 427.203125 452.324219 437.304688 425.03125 C 449.511719 392.027344 461.722656 359.03125 473.929688 326.027344 C 484.527344 297.390625 495.121094 268.75 505.714844 240.113281 C 509.179688 230.742188 512.648438 221.375 516.113281 212.011719 C 517.6875 207.753906 520.269531 203.023438 521.09375 198.542969 C 521.132812 198.34375 521.242188 198.140625 521.3125 197.957031 C 521.53125 197.355469 521.0625 196.484375 520.417969 196.378906 C 506.417969 194.175781 492.421875 191.972656 478.421875 189.769531 C 444.808594 184.472656 411.1875 179.179688 377.570312 173.882812 C 336.902344 167.476562 296.230469 161.074219 255.558594 154.667969 C 220.40625 149.132812 185.25 143.59375 150.09375 138.058594 C 138.507812 136.238281 126.925781 134.410156 115.34375 132.585938 C 109.917969 131.730469 104.347656 130.398438 98.859375 129.992188 C 98.628906 129.972656 98.386719 129.917969 98.148438 129.878906 C 96.539062 129.625 95.847656 132.089844 97.472656 132.347656 C 111.46875 134.550781 125.46875 136.753906 139.46875 138.960938 C 173.082031 144.25 206.703125 149.546875 240.320312 154.839844 C 280.988281 161.246094 321.660156 167.652344 362.332031 174.058594 C 397.488281 179.59375 432.640625 185.128906 467.796875 190.667969 C 479.382812 192.492188 490.964844 194.316406 502.546875 196.136719 C 506.132812 196.703125 509.722656 197.269531 513.3125 197.835938 C 514.820312 198.070312 517.511719 199.066406 519.027344 198.738281 C 519.214844 198.695312 519.535156 198.8125 519.738281 198.84375 C 519.441406 198.324219 519.148438 197.800781 518.84375 197.273438 C 514.621094 208.695312 510.394531 220.125 506.164062 231.550781 C 496.066406 258.839844 485.972656 286.136719 475.871094 313.429688 C 463.664062 346.429688 451.453125 379.429688 439.246094 412.433594 C 428.648438 441.074219 418.054688 469.710938 407.460938 498.351562 C 403.996094 507.71875 400.527344 517.085938 397.0625 526.449219 C 395.972656 529.398438 394.882812 532.34375 393.792969 535.289062 C 393.351562 536.484375 392.03125 538.628906 392.078125 539.917969 C 392.085938 540.082031 391.921875 540.34375 391.863281 540.507812 C 392.386719 540.207031 392.910156 539.910156 393.4375 539.613281 C 363.214844 531.066406 332.996094 522.519531 302.777344 513.972656 C 254.800781 500.40625 206.828125 486.839844 158.847656 473.273438 C 147.855469 470.160156 136.859375 467.054688 125.863281 463.941406 C 126.179688 464.355469 126.488281 464.765625 126.804688 465.175781 C 125.886719 454.136719 124.972656 443.09375 124.054688 432.046875 C 121.84375 405.386719 119.632812 378.71875 117.417969 352.050781 C 114.753906 319.925781 112.089844 287.800781 109.421875 255.671875 C 107.117188 227.894531 104.8125 200.113281 102.507812 172.328125 C 101.75 163.164062 100.988281 153.992188 100.226562 144.824219 C 99.875 140.601562 100.066406 135.855469 99.136719 131.710938 C 99.097656 131.519531 99.105469 131.308594 99.089844 131.113281 C 98.957031 129.488281 96.398438 129.46875 96.53125 131.113281 " fill-opacity="1" fill-rule="nonzero"/><path fill="#ffca0f" d="M 222.230469 2.015625 C 197.320312 21.566406 172.40625 41.109375 147.492188 60.65625 C 107.847656 91.761719 68.203125 122.863281 28.558594 153.964844 C 19.546875 161.035156 10.539062 168.105469 1.527344 175.179688 C 0.375 176.082031 0.726562 177.839844 1.527344 178.792969 C 9.054688 187.792969 16.574219 196.796875 24.101562 205.792969 C 42.171875 227.40625 60.242188 249.019531 78.3125 270.628906 C 100.074219 296.660156 121.839844 322.6875 143.605469 348.722656 C 162.507812 371.328125 181.410156 393.9375 200.3125 416.542969 C 206.527344 423.976562 212.738281 431.40625 218.953125 438.832031 C 221.863281 442.320312 224.601562 446.386719 227.890625 449.527344 C 228.035156 449.660156 228.152344 449.839844 228.28125 449.996094 C 229.179688 451.070312 230.972656 450.882812 231.898438 449.996094 C 241.480469 440.816406 251.066406 431.636719 260.648438 422.457031 C 283.660156 400.417969 306.671875 378.378906 329.6875 356.339844 C 357.421875 329.78125 385.15625 303.222656 412.890625 276.65625 C 436.964844 253.601562 461.042969 230.546875 485.113281 207.488281 C 493.035156 199.90625 500.949219 192.328125 508.867188 184.746094 C 512.613281 181.15625 516.800781 177.734375 520.25 173.84375 C 520.398438 173.675781 520.582031 173.523438 520.746094 173.371094 C 521.929688 172.238281 521.640625 170.15625 520.226562 169.351562 C 510.457031 163.796875 500.691406 158.238281 490.925781 152.683594 C 467.460938 139.335938 443.996094 125.992188 420.535156 112.648438 C 392.140625 96.5 363.753906 80.347656 335.359375 64.199219 C 310.808594 50.234375 286.253906 36.269531 261.699219 22.304688 C 253.628906 17.710938 245.554688 13.117188 237.484375 8.527344 C 233.652344 6.347656 229.847656 3.769531 225.847656 1.90625 C 225.671875 1.824219 225.503906 1.710938 225.335938 1.613281 C 222.46875 -0.015625 219.886719 4.40625 222.75 6.03125 C 232.519531 11.589844 242.292969 17.144531 252.058594 22.699219 C 275.523438 36.046875 298.984375 49.390625 322.445312 62.742188 C 350.835938 78.890625 379.230469 95.035156 407.617188 111.183594 C 432.175781 125.152344 456.726562 139.117188 481.277344 153.085938 C 489.351562 157.671875 497.421875 162.265625 505.496094 166.859375 C 508.058594 168.316406 510.617188 169.769531 513.175781 171.230469 C 514.34375 171.894531 515.820312 173.132812 517.132812 173.476562 C 517.304688 173.519531 517.492188 173.679688 517.648438 173.769531 C 517.472656 172.429688 517.300781 171.089844 517.128906 169.753906 C 507.542969 178.933594 497.960938 188.109375 488.378906 197.289062 C 465.367188 219.328125 442.351562 241.363281 419.339844 263.40625 C 391.601562 289.964844 363.871094 316.527344 336.136719 343.085938 C 312.058594 366.144531 287.984375 389.199219 263.910156 412.257812 C 255.992188 419.835938 248.074219 427.417969 240.160156 435 C 237.644531 437.410156 235.128906 439.820312 232.609375 442.230469 C 231.445312 443.347656 229.667969 444.542969 228.777344 445.898438 C 228.664062 446.074219 228.4375 446.230469 228.28125 446.378906 C 229.488281 446.378906 230.691406 446.378906 231.898438 446.378906 C 224.371094 437.375 216.847656 428.375 209.320312 419.375 C 191.25 397.765625 173.183594 376.152344 155.113281 354.542969 C 133.351562 328.511719 111.582031 302.480469 89.816406 276.449219 C 70.914062 253.839844 52.011719 231.234375 33.113281 208.625 C 26.898438 201.199219 20.683594 193.765625 14.472656 186.335938 C 12.515625 183.996094 10.558594 181.65625 8.605469 179.316406 C 7.6875 178.226562 6.699219 176.480469 5.53125 175.644531 C 5.382812 175.535156 5.265625 175.320312 5.144531 175.179688 C 5.144531 176.382812 5.144531 177.585938 5.144531 178.792969 C 30.058594 159.25 54.972656 139.699219 79.882812 120.152344 C 119.527344 89.050781 159.171875 57.945312 198.816406 26.84375 C 207.824219 19.773438 216.839844 12.703125 225.851562 5.632812 C 228.4375 3.601562 224.796875 0.00390625 222.230469 2.015625 " fill-opacity="1" fill-rule="nonzero"/><path fill="#ffca0f" d="M 56.792969 18.167969 C 57.710938 29.207031 58.628906 40.25 59.542969 51.296875 C 61.757812 77.960938 63.964844 104.625 66.179688 131.292969 C 68.847656 163.417969 71.511719 195.542969 74.175781 227.671875 C 76.480469 255.449219 78.785156 283.234375 81.089844 311.011719 C 81.851562 320.183594 82.609375 329.351562 83.375 338.519531 C 83.722656 342.773438 83.589844 347.449219 84.460938 351.636719 C 84.5 351.824219 84.492188 352.035156 84.507812 352.230469 C 84.554688 352.800781 84.875 353.300781 85.449219 353.464844 C 115.667969 362.007812 145.886719 370.558594 176.109375 379.105469 C 224.082031 392.667969 272.058594 406.238281 320.035156 419.804688 C 331.027344 422.914062 342.023438 426.023438 353.019531 429.132812 C 353.726562 429.335938 354.351562 428.886719 354.589844 428.242188 C 358.820312 416.816406 363.046875 405.390625 367.273438 393.96875 C 377.367188 366.675781 387.46875 339.378906 397.566406 312.085938 C 409.777344 279.082031 421.984375 246.085938 434.195312 213.082031 C 444.789062 184.445312 455.382812 155.804688 465.980469 127.164062 C 469.445312 117.796875 472.910156 108.429688 476.375 99.066406 C 477.949219 94.808594 480.53125 90.078125 481.355469 85.597656 C 481.394531 85.398438 481.507812 85.195312 481.574219 85.011719 C 481.796875 84.410156 481.324219 83.539062 480.683594 83.433594 C 466.683594 81.230469 452.6875 79.027344 438.6875 76.824219 C 405.070312 71.527344 371.453125 66.230469 337.832031 60.9375 C 297.164062 54.53125 256.496094 48.128906 215.824219 41.722656 C 180.667969 36.1875 145.511719 30.648438 110.355469 25.113281 C 98.773438 23.292969 87.1875 21.464844 75.605469 19.640625 C 70.179688 18.785156 64.609375 17.453125 59.125 17.046875 C 58.890625 17.027344 58.648438 16.972656 58.410156 16.933594 C 56.800781 16.679688 56.113281 19.144531 57.734375 19.402344 C 71.730469 21.605469 85.730469 23.808594 99.730469 26.015625 C 133.34375 31.304688 166.964844 36.601562 200.585938 41.894531 C 241.25 48.300781 281.921875 54.707031 322.59375 61.113281 C 357.75 66.648438 392.90625 72.183594 428.0625 77.722656 C 439.644531 79.546875 451.226562 81.371094 462.8125 83.191406 C 466.398438 83.757812 469.984375 84.324219 473.574219 84.890625 C 475.085938 85.125 477.773438 86.121094 479.289062 85.792969 C 479.480469 85.746094 479.796875 85.867188 480 85.898438 C 479.703125 85.375 479.410156 84.855469 479.109375 84.328125 C 474.882812 95.75 470.65625 107.179688 466.429688 118.605469 C 456.328125 145.894531 446.234375 173.191406 436.136719 200.484375 C 423.925781 233.484375 411.71875 266.484375 399.507812 299.488281 C 388.914062 328.128906 378.316406 356.765625 367.722656 385.40625 C 364.257812 394.773438 360.792969 404.140625 357.328125 413.503906 C 356.234375 416.453125 355.148438 419.398438 354.054688 422.34375 C 353.613281 423.539062 352.292969 425.683594 352.34375 426.972656 C 352.351562 427.136719 352.1875 427.398438 352.125 427.5625 C 352.648438 427.261719 353.175781 426.964844 353.703125 426.667969 C 323.480469 418.121094 293.261719 409.574219 263.042969 401.027344 C 215.0625 387.460938 167.089844 373.894531 119.113281 360.328125 C 108.121094 357.214844 97.125 354.109375 86.128906 350.996094 C 86.441406 351.410156 86.753906 351.820312 87.066406 352.230469 C 86.148438 341.191406 85.234375 330.148438 84.320312 319.101562 C 82.105469 292.441406 79.894531 265.773438 77.679688 239.105469 C 75.019531 206.980469 72.351562 174.855469 69.683594 142.726562 C 67.378906 114.949219 65.074219 87.167969 62.769531 59.382812 C 62.011719 50.214844 61.25 41.046875 60.488281 31.878906 C 60.136719 27.652344 60.328125 22.910156 59.398438 18.765625 C 59.359375 18.574219 59.371094 18.363281 59.351562 18.167969 C 59.21875 16.542969 56.660156 16.523438 56.792969 18.167969 " fill-opacity="1" fill-rule="nonzero"/><g clip-path="url(#1aeb6132f0)"><path fill="#ffca0f" d="M 349.53125 164.351562 C 331.890625 178.195312 314.246094 192.039062 296.605469 205.878906 C 268.527344 227.90625 240.453125 249.933594 212.378906 271.957031 C 206 276.964844 199.617188 281.972656 193.234375 286.980469 C 192.421875 287.617188 192.671875 288.867188 193.234375 289.542969 C 198.566406 295.914062 203.894531 302.289062 209.222656 308.660156 C 222.019531 323.964844 234.816406 339.273438 247.613281 354.574219 C 263.023438 373.007812 278.4375 391.441406 293.851562 409.875 C 307.234375 425.886719 320.621094 441.898438 334.007812 457.90625 C 338.410156 463.167969 342.808594 468.429688 347.207031 473.691406 C 349.269531 476.160156 351.207031 479.039062 353.539062 481.265625 C 353.640625 481.359375 353.722656 481.484375 353.816406 481.59375 C 354.453125 482.355469 355.71875 482.222656 356.378906 481.59375 C 363.160156 475.09375 369.949219 468.59375 376.738281 462.09375 C 393.035156 446.488281 409.328125 430.878906 425.628906 415.269531 C 445.265625 396.464844 464.90625 377.65625 484.546875 358.84375 C 501.597656 342.519531 518.648438 326.191406 535.695312 309.863281 C 541.300781 304.492188 546.90625 299.125 552.515625 293.753906 C 555.167969 291.214844 558.132812 288.789062 560.574219 286.035156 C 560.683594 285.917969 560.808594 285.808594 560.925781 285.699219 C 561.765625 284.898438 561.558594 283.421875 560.558594 282.855469 C 553.640625 278.921875 546.722656 274.984375 539.808594 271.050781 C 523.191406 261.597656 506.574219 252.148438 489.960938 242.699219 C 469.855469 231.261719 449.75 219.824219 429.644531 208.390625 C 412.257812 198.5 394.871094 188.609375 377.480469 178.71875 C 371.765625 175.46875 366.046875 172.214844 360.332031 168.964844 C 357.617188 167.421875 354.925781 165.597656 352.09375 164.277344 C 351.96875 164.21875 351.847656 164.136719 351.730469 164.066406 C 349.699219 162.917969 347.871094 166.046875 349.898438 167.199219 C 356.816406 171.132812 363.738281 175.066406 370.652344 179 C 387.269531 188.453125 403.882812 197.902344 420.5 207.355469 C 440.601562 218.792969 460.710938 230.226562 480.8125 241.664062 C 498.203125 251.550781 515.589844 261.441406 532.976562 271.335938 C 538.695312 274.585938 544.410156 277.835938 550.128906 281.085938 C 551.941406 282.121094 553.753906 283.152344 555.566406 284.183594 C 556.394531 284.65625 557.4375 285.53125 558.367188 285.777344 C 558.492188 285.804688 558.621094 285.917969 558.730469 285.984375 C 558.609375 285.035156 558.488281 284.085938 558.367188 283.136719 C 551.578125 289.640625 544.792969 296.136719 538.003906 302.636719 C 521.710938 318.246094 505.410156 333.851562 489.113281 349.457031 C 469.472656 368.265625 449.832031 387.078125 430.195312 405.886719 C 413.144531 422.214844 396.09375 438.539062 379.046875 454.871094 C 373.441406 460.238281 367.832031 465.605469 362.226562 470.976562 C 360.445312 472.683594 358.664062 474.390625 356.882812 476.097656 C 356.054688 476.886719 354.796875 477.734375 354.167969 478.695312 C 354.085938 478.820312 353.925781 478.929688 353.816406 479.03125 C 354.667969 479.03125 355.519531 479.03125 356.378906 479.03125 C 351.046875 472.65625 345.71875 466.285156 340.386719 459.910156 C 327.589844 444.609375 314.796875 429.300781 302 414 C 286.589844 395.5625 271.171875 377.128906 255.761719 358.699219 C 242.375 342.6875 228.988281 326.675781 215.605469 310.664062 C 211.203125 305.40625 206.804688 300.144531 202.40625 294.878906 C 201.015625 293.222656 199.632812 291.566406 198.25 289.910156 C 197.601562 289.136719 196.902344 287.902344 196.074219 287.308594 C 195.96875 287.234375 195.882812 287.082031 195.796875 286.980469 C 195.796875 287.832031 195.796875 288.683594 195.796875 289.542969 C 213.441406 275.699219 231.085938 261.855469 248.726562 248.011719 C 276.800781 225.988281 304.875 203.960938 332.949219 181.933594 C 339.328125 176.929688 345.714844 171.921875 352.09375 166.914062 C 353.925781 165.476562 351.347656 162.929688 349.53125 164.351562 " fill-opacity="1" fill-rule="nonzero"/></g><path fill="#ffca0f" d="M 232.375 175.792969 C 233.023438 183.609375 233.671875 191.429688 234.320312 199.25 C 235.890625 218.136719 237.453125 237.015625 239.019531 255.902344 C 240.910156 278.652344 242.796875 301.402344 244.683594 324.152344 C 246.316406 343.824219 247.949219 363.5 249.582031 383.171875 C 250.117188 389.664062 250.65625 396.160156 251.199219 402.652344 C 251.445312 405.664062 251.351562 408.976562 251.96875 411.941406 C 251.996094 412.074219 251.988281 412.222656 252 412.363281 C 252.035156 412.765625 252.261719 413.121094 252.667969 413.234375 C 274.066406 419.285156 295.464844 425.339844 316.871094 431.390625 C 350.84375 441 384.816406 450.605469 418.792969 460.214844 C 426.574219 462.417969 434.363281 464.621094 442.148438 466.820312 C 442.652344 466.964844 443.09375 466.644531 443.261719 466.191406 C 446.257812 458.097656 449.25 450.007812 452.246094 441.917969 C 459.394531 422.589844 466.542969 403.261719 473.695312 383.933594 C 482.34375 360.5625 490.988281 337.195312 499.632812 313.824219 C 507.136719 293.542969 514.640625 273.261719 522.144531 252.980469 C 524.597656 246.34375 527.050781 239.710938 529.503906 233.082031 C 530.621094 230.0625 532.449219 226.714844 533.03125 223.542969 C 533.058594 223.402344 533.140625 223.257812 533.1875 223.125 C 533.34375 222.703125 533.011719 222.085938 532.554688 222.011719 C 522.640625 220.449219 512.730469 218.890625 502.816406 217.328125 C 479.011719 213.578125 455.203125 209.828125 431.394531 206.078125 C 402.597656 201.542969 373.792969 197.007812 344.992188 192.472656 C 320.097656 188.550781 295.199219 184.628906 270.304688 180.710938 C 262.101562 179.417969 253.898438 178.125 245.695312 176.835938 C 241.855469 176.230469 237.910156 175.285156 234.023438 174.996094 C 233.859375 174.984375 233.6875 174.945312 233.519531 174.917969 C 232.378906 174.738281 231.890625 176.484375 233.039062 176.664062 C 242.953125 178.226562 252.867188 179.785156 262.78125 181.347656 C 286.585938 185.09375 310.394531 188.84375 334.199219 192.59375 C 363 197.128906 391.800781 201.664062 420.601562 206.203125 C 445.5 210.121094 470.394531 214.042969 495.292969 217.964844 C 503.492188 219.257812 511.695312 220.550781 519.898438 221.839844 C 522.441406 222.242188 524.980469 222.640625 527.523438 223.039062 C 528.589844 223.210938 530.496094 223.910156 531.570312 223.679688 C 531.703125 223.648438 531.929688 223.734375 532.074219 223.757812 C 531.863281 223.386719 531.652344 223.015625 531.441406 222.644531 C 528.449219 230.734375 525.457031 238.828125 522.460938 246.917969 C 515.308594 266.242188 508.160156 285.574219 501.007812 304.902344 C 492.363281 328.269531 483.71875 351.640625 475.070312 375.011719 C 467.566406 395.292969 460.066406 415.574219 452.5625 435.855469 C 450.109375 442.488281 447.652344 449.121094 445.199219 455.753906 C 444.425781 457.839844 443.65625 459.929688 442.882812 462.011719 C 442.570312 462.859375 441.636719 464.378906 441.671875 465.292969 C 441.675781 465.40625 441.558594 465.589844 441.515625 465.707031 C 441.886719 465.496094 442.261719 465.285156 442.632812 465.074219 C 421.230469 459.023438 399.832031 452.96875 378.429688 446.917969 C 344.453125 437.308594 310.480469 427.703125 276.507812 418.09375 C 268.722656 415.890625 260.933594 413.691406 253.148438 411.488281 C 253.371094 411.78125 253.589844 412.070312 253.8125 412.363281 C 253.164062 404.542969 252.515625 396.722656 251.867188 388.902344 C 250.296875 370.019531 248.734375 351.136719 247.167969 332.25 C 245.28125 309.5 243.390625 286.75 241.503906 264 C 239.871094 244.328125 238.238281 224.65625 236.605469 204.980469 C 236.070312 198.488281 235.53125 191.992188 234.988281 185.5 C 234.742188 182.507812 234.878906 179.152344 234.21875 176.214844 C 234.191406 176.078125 234.199219 175.929688 234.1875 175.792969 C 234.089844 174.640625 232.28125 174.628906 232.375 175.792969 " fill-opacity="1" fill-rule="nonzero"/></svg>