<svg xmlns="http://www.w3.org/2000/svg" xmlns:xlink="http://www.w3.org/1999/xlink" width="500" zoomAndPan="magnify" viewBox="0 0 375 374.999991" height="500" preserveAspectRatio="xMidYMid meet" version="1.0"><defs><clipPath id="5dd00a9e40"><path d="M 3.257812 3.257812 L 375 3.257812 L 375 375 L 3.257812 375 Z M 3.257812 3.257812 " clip-rule="nonzero"/></clipPath></defs><g clip-path="url(#5dd00a9e40)"><path fill="#66e5fb" d="M 373.644531 6.714844 C 373.703125 6.695312 373.765625 6.6875 373.820312 6.660156 C 373.871094 6.644531 373.925781 6.617188 373.976562 6.589844 C 374.011719 6.574219 374.054688 6.554688 374.089844 6.539062 C 374.152344 6.503906 374.207031 6.457031 374.265625 6.421875 C 374.292969 6.40625 374.3125 6.386719 374.335938 6.371094 C 374.398438 6.316406 374.460938 6.265625 374.515625 6.203125 C 374.523438 6.1875 374.539062 6.175781 374.558594 6.160156 C 374.621094 6.089844 374.671875 6.019531 374.714844 5.949219 C 374.726562 5.941406 374.734375 5.929688 374.742188 5.914062 C 374.777344 5.851562 374.8125 5.78125 374.839844 5.710938 C 374.847656 5.683594 374.867188 5.660156 374.875 5.632812 C 374.875 5.632812 374.875 5.625 374.875 5.625 C 374.910156 5.519531 374.945312 5.410156 374.960938 5.304688 C 374.972656 5.253906 374.972656 5.199219 374.980469 5.148438 C 374.980469 5.09375 374.988281 5.050781 374.988281 5 C 374.988281 4.988281 374.988281 4.980469 374.988281 4.972656 C 374.988281 4.894531 374.980469 4.8125 374.960938 4.742188 C 374.953125 4.699219 374.953125 4.664062 374.945312 4.621094 C 374.925781 4.558594 374.910156 4.496094 374.890625 4.4375 C 374.875 4.382812 374.867188 4.332031 374.839844 4.285156 C 374.820312 4.242188 374.796875 4.207031 374.777344 4.171875 C 374.742188 4.109375 374.714844 4.050781 374.671875 3.988281 C 374.65625 3.960938 374.636719 3.945312 374.621094 3.925781 C 374.566406 3.855469 374.515625 3.785156 374.453125 3.734375 C 374.433594 3.714844 374.417969 3.707031 374.410156 3.699219 C 374.335938 3.636719 374.265625 3.574219 374.1875 3.523438 C 374.160156 3.503906 374.136719 3.496094 374.109375 3.476562 C 374.039062 3.433594 373.96875 3.398438 373.890625 3.363281 C 373.878906 3.363281 373.871094 3.355469 373.863281 3.347656 C 373.820312 3.328125 373.773438 3.320312 373.722656 3.3125 C 373.667969 3.292969 373.609375 3.277344 373.554688 3.265625 C 373.484375 3.25 373.40625 3.25 373.335938 3.242188 C 373.300781 3.242188 373.265625 3.230469 373.230469 3.230469 C 373.222656 3.230469 373.210938 3.230469 373.203125 3.230469 C 373.125 3.230469 373.046875 3.242188 372.964844 3.257812 C 372.929688 3.265625 372.886719 3.265625 372.851562 3.277344 C 372.789062 3.292969 372.730469 3.3125 372.667969 3.335938 C 372.613281 3.355469 372.570312 3.363281 372.519531 3.390625 C 372.472656 3.40625 372.4375 3.433594 372.394531 3.460938 C 372.332031 3.496094 372.273438 3.523438 372.21875 3.566406 C 372.191406 3.582031 372.175781 3.609375 372.148438 3.628906 C 372.085938 3.679688 372.015625 3.734375 371.964844 3.792969 C 371.945312 3.8125 371.9375 3.828125 371.921875 3.847656 C 371.859375 3.917969 371.796875 3.988281 371.753906 4.058594 C 371.734375 4.085938 371.726562 4.109375 371.710938 4.144531 C 371.664062 4.214844 371.628906 4.285156 371.59375 4.367188 C 371.59375 4.375 371.585938 4.382812 371.578125 4.390625 C 371.550781 4.453125 371.542969 4.523438 371.523438 4.585938 C 371.515625 4.613281 371.507812 4.648438 371.5 4.671875 C 371.453125 4.894531 371.453125 5.113281 371.488281 5.324219 C 371.5 5.359375 371.507812 5.394531 371.515625 5.4375 C 371.53125 5.5 371.542969 5.5625 371.570312 5.613281 C 371.585938 5.667969 371.613281 5.730469 371.640625 5.78125 C 371.65625 5.816406 371.664062 5.851562 371.691406 5.886719 C 371.726562 5.949219 371.769531 6.011719 371.816406 6.070312 C 371.832031 6.089844 371.839844 6.117188 371.859375 6.132812 C 371.894531 6.175781 371.9375 6.222656 371.980469 6.265625 L 282.945312 135.800781 C 282.777344 135.730469 282.609375 135.675781 282.425781 135.648438 C 281.457031 135.542969 280.578125 136.257812 280.472656 137.222656 C 280.367188 138.191406 281.078125 139.070312 282.046875 139.175781 C 282.277344 139.203125 282.496094 139.175781 282.707031 139.121094 L 333.929688 243.617188 C 333.921875 243.617188 333.921875 243.625 333.921875 243.625 C 333.910156 243.632812 333.894531 243.644531 333.886719 243.652344 C 333.867188 243.660156 333.859375 243.667969 333.851562 243.6875 C 333.804688 243.722656 333.761719 243.765625 333.71875 243.808594 C 333.710938 243.820312 333.699219 243.828125 333.691406 243.835938 C 333.683594 243.84375 333.675781 243.863281 333.65625 243.878906 C 333.648438 243.890625 333.640625 243.90625 333.621094 243.914062 C 333.613281 243.933594 333.59375 243.941406 333.585938 243.960938 C 333.585938 243.960938 333.578125 243.96875 333.578125 243.96875 C 333.558594 243.984375 333.558594 244.003906 333.542969 244.019531 C 333.542969 244.03125 333.535156 244.03125 333.535156 244.039062 C 333.523438 244.054688 333.507812 244.074219 333.488281 244.089844 C 333.480469 244.101562 333.472656 244.117188 333.464844 244.125 C 333.464844 244.136719 333.453125 244.136719 333.453125 244.144531 C 333.445312 244.160156 333.4375 244.171875 333.429688 244.1875 C 333.429688 244.1875 333.417969 244.195312 333.417969 244.195312 L 224.378906 210.9375 C 224.398438 210.8125 224.398438 210.691406 224.378906 210.558594 C 224.28125 209.707031 223.597656 209.046875 222.761719 208.976562 L 213.625 122.234375 C 214.425781 121.988281 214.972656 121.214844 214.875 120.351562 C 214.769531 119.382812 213.898438 118.671875 212.921875 118.777344 C 211.957031 118.882812 211.246094 119.753906 211.351562 120.730469 C 211.445312 121.582031 212.132812 122.242188 212.96875 122.3125 L 222.101562 209.054688 C 221.300781 209.300781 220.757812 210.074219 220.855469 210.9375 C 220.855469 210.945312 220.855469 210.953125 220.855469 210.953125 L 161.921875 229.433594 C 161.613281 228.863281 161.007812 228.484375 160.3125 228.496094 C 159.335938 228.511719 158.570312 229.347656 158.589844 230.3125 C 158.605469 231.175781 159.257812 231.878906 160.082031 232.011719 L 162.097656 303.457031 C 161.339844 303.621094 160.777344 304.230469 160.707031 305.054688 C 160.699219 305.230469 160.726562 305.398438 160.761719 305.558594 L 6.46875 372.226562 C 6.46875 372.226562 6.46875 372.226562 6.46875 372.21875 C 6.414062 372.132812 6.34375 372.0625 6.273438 371.980469 C 6.210938 371.921875 6.152344 371.867188 6.082031 371.816406 C 6.0625 371.804688 6.054688 371.789062 6.035156 371.78125 C 5.992188 371.746094 5.941406 371.71875 5.886719 371.691406 C 5.84375 371.664062 5.800781 371.636719 5.753906 371.621094 C 5.730469 371.613281 5.710938 371.601562 5.683594 371.59375 C 5.605469 371.558594 5.535156 371.53125 5.457031 371.515625 C 5.457031 371.515625 5.445312 371.515625 5.445312 371.515625 C 5.351562 371.488281 5.253906 371.472656 5.148438 371.460938 C 5.140625 371.460938 5.140625 371.460938 5.128906 371.460938 C 5.042969 371.453125 4.945312 371.453125 4.859375 371.460938 C 4.847656 371.460938 4.832031 371.460938 4.824219 371.460938 C 4.796875 371.460938 4.769531 371.472656 4.753906 371.480469 C 4.683594 371.488281 4.601562 371.507812 4.53125 371.523438 C 4.488281 371.53125 4.445312 371.550781 4.402344 371.566406 C 4.375 371.578125 4.339844 371.585938 4.3125 371.59375 C 4.285156 371.601562 4.269531 371.621094 4.25 371.628906 C 4.179688 371.664062 4.109375 371.707031 4.039062 371.753906 C 4.015625 371.769531 3.996094 371.789062 3.96875 371.796875 C 3.898438 371.851562 3.828125 371.910156 3.769531 371.972656 C 3.75 371.992188 3.722656 372.015625 3.707031 372.035156 C 3.652344 372.085938 3.609375 372.148438 3.566406 372.210938 C 3.539062 372.246094 3.511719 372.289062 3.488281 372.332031 C 3.460938 372.378906 3.433594 372.421875 3.417969 372.464844 C 3.382812 372.527344 3.355469 372.597656 3.335938 372.667969 C 3.328125 372.695312 3.320312 372.71875 3.3125 372.753906 C 3.285156 372.84375 3.265625 372.929688 3.257812 373.019531 C 3.257812 373.046875 3.25 373.070312 3.25 373.097656 C 3.242188 373.175781 3.242188 373.265625 3.25 373.34375 C 3.25 373.371094 3.25 373.386719 3.25 373.414062 C 3.25 373.441406 3.257812 373.46875 3.265625 373.492188 C 3.277344 373.554688 3.292969 373.617188 3.3125 373.6875 C 3.328125 373.75 3.347656 373.800781 3.363281 373.855469 C 3.371094 373.878906 3.382812 373.90625 3.390625 373.933594 C 3.398438 373.960938 3.417969 373.976562 3.425781 373.996094 C 3.460938 374.066406 3.496094 374.136719 3.539062 374.207031 C 3.558594 374.230469 3.574219 374.25 3.582031 374.277344 C 3.636719 374.347656 3.699219 374.417969 3.757812 374.476562 C 3.777344 374.496094 3.804688 374.523438 3.820312 374.539062 C 3.875 374.59375 3.933594 374.636719 3.996094 374.679688 C 4.03125 374.707031 4.074219 374.734375 4.121094 374.761719 C 4.164062 374.785156 4.207031 374.8125 4.261719 374.832031 C 4.320312 374.867188 4.390625 374.890625 4.460938 374.910156 C 4.488281 374.917969 4.515625 374.925781 4.550781 374.9375 C 4.636719 374.960938 4.726562 374.980469 4.8125 374.988281 C 4.839844 374.988281 4.867188 374.996094 4.894531 374.996094 C 4.972656 375.007812 5.058594 375.007812 5.140625 374.996094 C 5.164062 374.996094 5.183594 374.996094 5.210938 374.996094 C 5.234375 374.996094 5.269531 374.988281 5.296875 374.980469 C 5.351562 374.972656 5.402344 374.960938 5.445312 374.953125 C 5.519531 374.9375 5.578125 374.917969 5.640625 374.890625 C 5.667969 374.882812 5.695312 374.875 5.71875 374.867188 C 5.730469 374.855469 5.746094 374.847656 5.753906 374.847656 C 5.835938 374.8125 5.90625 374.769531 5.976562 374.726562 C 5.984375 374.714844 5.992188 374.714844 6.011719 374.707031 C 6.089844 374.65625 6.167969 374.59375 6.238281 374.523438 C 6.238281 374.523438 6.238281 374.523438 6.246094 374.515625 C 6.308594 374.453125 6.363281 374.390625 6.414062 374.320312 C 6.421875 374.300781 6.441406 374.285156 6.449219 374.277344 C 6.484375 374.230469 6.511719 374.179688 6.539062 374.125 C 6.5625 374.082031 6.589844 374.039062 6.609375 373.996094 C 6.617188 373.96875 6.625 373.949219 6.632812 373.925781 C 6.667969 373.84375 6.695312 373.773438 6.714844 373.695312 C 6.714844 373.695312 6.714844 373.6875 6.714844 373.6875 C 6.738281 373.589844 6.757812 373.492188 6.765625 373.386719 L 283.4375 344.214844 C 283.59375 344.742188 284 345.191406 284.5625 345.386719 C 285.386719 345.65625 286.257812 345.304688 286.671875 344.566406 L 371.453125 373 C 371.453125 373.019531 371.453125 373.035156 371.453125 373.054688 C 371.453125 373.054688 371.453125 373.0625 371.453125 373.0625 C 371.453125 373.097656 371.445312 373.132812 371.445312 373.175781 C 371.445312 373.203125 371.4375 373.222656 371.4375 373.238281 C 371.4375 373.246094 371.4375 373.246094 371.4375 373.257812 C 371.4375 373.273438 371.4375 373.292969 371.4375 373.300781 C 371.4375 373.300781 371.4375 373.308594 371.4375 373.308594 C 371.4375 373.328125 371.445312 373.34375 371.445312 373.371094 C 371.445312 373.398438 371.445312 373.421875 371.445312 373.441406 C 371.445312 373.457031 371.453125 373.476562 371.453125 373.484375 C 371.460938 373.519531 371.460938 373.546875 371.460938 373.582031 C 371.460938 373.589844 371.460938 373.589844 371.472656 373.597656 C 371.480469 373.652344 371.496094 373.695312 371.515625 373.738281 C 371.523438 373.757812 371.523438 373.785156 371.53125 373.800781 C 371.542969 373.828125 371.550781 373.863281 371.566406 373.890625 C 371.578125 373.914062 371.59375 373.941406 371.613281 373.976562 C 371.621094 374.003906 371.636719 374.03125 371.648438 374.054688 C 371.65625 374.074219 371.664062 374.089844 371.671875 374.117188 C 371.683594 374.125 371.683594 374.136719 371.691406 374.152344 C 371.699219 374.160156 371.699219 374.171875 371.707031 374.179688 C 371.707031 374.1875 371.71875 374.1875 371.71875 374.195312 C 371.734375 374.222656 371.761719 374.257812 371.78125 374.285156 C 371.804688 374.320312 371.824219 374.355469 371.851562 374.382812 C 371.851562 374.382812 371.859375 374.390625 371.859375 374.390625 C 371.867188 374.398438 371.875 374.40625 371.886719 374.417969 C 371.894531 374.433594 371.910156 374.441406 371.921875 374.460938 C 371.9375 374.488281 371.964844 374.503906 371.992188 374.523438 C 372.027344 374.550781 372.050781 374.585938 372.085938 374.609375 C 372.105469 374.621094 372.113281 374.628906 372.132812 374.636719 C 372.148438 374.644531 372.15625 374.664062 372.175781 374.671875 C 372.203125 374.691406 372.226562 374.707031 372.253906 374.726562 C 372.289062 374.742188 372.324219 374.769531 372.359375 374.785156 C 372.378906 374.796875 372.402344 374.804688 372.421875 374.8125 C 372.4375 374.820312 372.449219 374.832031 372.464844 374.832031 C 372.492188 374.847656 372.527344 374.855469 372.554688 374.867188 C 372.578125 374.875 372.597656 374.882812 372.625 374.890625 C 372.640625 374.902344 372.648438 374.902344 372.667969 374.902344 C 372.695312 374.910156 372.710938 374.910156 372.738281 374.917969 C 372.753906 374.925781 372.773438 374.925781 372.789062 374.9375 C 372.835938 374.945312 372.871094 374.953125 372.914062 374.953125 C 372.941406 374.960938 372.976562 374.960938 373 374.972656 C 373.019531 374.972656 373.046875 374.972656 373.0625 374.980469 C 373.089844 374.980469 373.117188 374.980469 373.140625 374.980469 C 373.160156 374.980469 373.167969 374.980469 373.1875 374.980469 C 373.210938 374.980469 373.238281 374.972656 373.265625 374.972656 C 373.292969 374.972656 373.316406 374.972656 373.351562 374.972656 C 373.371094 374.972656 373.378906 374.972656 373.398438 374.972656 C 373.40625 374.972656 373.414062 374.972656 373.414062 374.960938 C 373.441406 374.960938 373.46875 374.953125 373.492188 374.945312 C 373.527344 374.9375 373.5625 374.925781 373.609375 374.917969 C 373.644531 374.910156 373.667969 374.902344 373.703125 374.890625 C 373.722656 374.882812 373.730469 374.882812 373.75 374.882812 C 373.773438 374.875 373.800781 374.867188 373.828125 374.847656 C 373.863281 374.839844 373.890625 374.820312 373.914062 374.804688 C 373.949219 374.785156 373.976562 374.769531 374.011719 374.75 C 374.03125 374.742188 374.046875 374.734375 374.066406 374.726562 C 374.074219 374.714844 374.082031 374.714844 374.089844 374.707031 C 374.101562 374.699219 374.117188 374.691406 374.125 374.679688 C 374.152344 374.664062 374.171875 374.644531 374.195312 374.636719 C 374.230469 374.609375 374.257812 374.59375 374.285156 374.566406 C 374.300781 374.550781 374.328125 374.53125 374.347656 374.515625 C 374.363281 374.496094 374.382812 374.488281 374.398438 374.46875 C 374.417969 374.453125 374.433594 374.433594 374.453125 374.417969 C 374.476562 374.390625 374.503906 374.363281 374.53125 374.328125 C 374.546875 374.300781 374.574219 374.285156 374.59375 374.257812 C 374.601562 374.242188 374.617188 374.230469 374.628906 374.214844 C 374.644531 374.1875 374.652344 374.171875 374.671875 374.144531 C 374.6875 374.117188 374.707031 374.082031 374.722656 374.054688 C 374.742188 374.03125 374.75 374.003906 374.769531 373.96875 C 374.777344 373.949219 374.785156 373.941406 374.792969 373.925781 C 374.8125 373.890625 374.820312 373.863281 374.828125 373.828125 C 374.839844 373.808594 374.847656 373.792969 374.855469 373.765625 C 374.863281 373.75 374.863281 373.738281 374.863281 373.722656 C 374.875 373.695312 374.882812 373.667969 374.882812 373.652344 C 374.890625 373.632812 374.890625 373.617188 374.898438 373.597656 C 374.910156 373.554688 374.917969 373.519531 374.917969 373.476562 C 374.925781 373.449219 374.925781 373.414062 374.933594 373.386719 C 374.933594 373.371094 374.933594 373.34375 374.945312 373.328125 C 374.945312 373.300781 374.945312 373.273438 374.945312 373.246094 C 374.945312 373.230469 374.945312 373.222656 374.945312 373.203125 C 374.945312 373.175781 374.933594 373.140625 374.933594 373.117188 C 374.933594 373.089844 374.933594 373.0625 374.933594 373.035156 C 374.933594 373.019531 374.933594 373.011719 374.933594 372.992188 C 374.933594 372.984375 374.933594 372.976562 374.925781 372.964844 C 374.925781 372.949219 374.917969 372.929688 374.917969 372.90625 C 374.910156 372.859375 374.898438 372.824219 374.890625 372.78125 C 374.882812 372.753906 374.882812 372.730469 374.875 372.703125 C 374.863281 372.683594 374.863281 372.667969 374.855469 372.648438 C 374.847656 372.625 374.847656 372.605469 374.839844 372.578125 C 374.820312 372.542969 374.804688 372.507812 374.785156 372.472656 C 374.777344 372.449219 374.769531 372.414062 374.75 372.386719 C 374.742188 372.367188 374.734375 372.359375 374.722656 372.34375 C 374.714844 372.324219 374.707031 372.308594 374.699219 372.289062 C 374.6875 372.28125 374.6875 372.273438 374.6875 372.261719 C 374.671875 372.238281 374.644531 372.210938 374.628906 372.183594 C 374.609375 372.167969 374.601562 372.140625 374.582031 372.113281 C 374.574219 372.097656 374.558594 372.085938 374.546875 372.078125 C 374.539062 372.0625 374.523438 372.050781 374.511719 372.035156 C 374.488281 372.007812 374.460938 371.980469 374.433594 371.957031 C 374.40625 371.929688 374.382812 371.902344 374.355469 371.875 C 374.347656 371.867188 374.328125 371.859375 374.320312 371.839844 C 374.3125 371.832031 374.292969 371.824219 374.285156 371.816406 C 374.257812 371.796875 374.230469 371.78125 374.207031 371.761719 C 374.171875 371.734375 374.136719 371.710938 374.101562 371.683594 C 374.082031 371.675781 374.074219 371.664062 374.066406 371.65625 C 374.054688 371.648438 374.039062 371.648438 374.03125 371.640625 C 374.003906 371.628906 373.984375 371.613281 373.960938 371.605469 C 373.925781 371.585938 373.878906 371.570312 373.84375 371.550781 C 373.820312 371.542969 373.792969 371.523438 373.765625 371.515625 C 373.757812 371.515625 373.75 371.507812 373.738281 371.5 C 373.714844 371.488281 373.6875 371.488281 373.660156 371.480469 C 373.625 371.472656 373.589844 371.464844 373.5625 371.453125 C 373.546875 371.445312 373.527344 371.445312 373.503906 371.4375 L 373.503906 195.601562 C 373.519531 195.601562 373.539062 195.59375 373.554688 195.585938 C 373.589844 195.578125 373.625 195.566406 373.660156 195.558594 C 373.722656 195.542969 373.785156 195.523438 373.835938 195.496094 C 373.878906 195.480469 373.925781 195.453125 373.96875 195.4375 C 374.011719 195.410156 374.054688 195.390625 374.101562 195.367188 C 374.152344 195.332031 374.195312 195.296875 374.25 195.261719 C 374.277344 195.234375 374.3125 195.214844 374.335938 195.191406 C 374.382812 195.144531 374.425781 195.101562 374.46875 195.058594 C 374.496094 195.03125 374.523438 195.003906 374.546875 194.96875 C 374.582031 194.925781 374.609375 194.882812 374.644531 194.839844 C 374.671875 194.792969 374.699219 194.757812 374.722656 194.714844 C 374.75 194.671875 374.769531 194.628906 374.785156 194.582031 C 374.8125 194.53125 374.828125 194.476562 374.847656 194.425781 C 374.855469 194.40625 374.863281 194.398438 374.863281 194.382812 C 374.875 194.355469 374.875 194.328125 374.882812 194.300781 C 374.898438 194.222656 374.917969 194.152344 374.925781 194.074219 C 374.925781 194.039062 374.933594 194.011719 374.933594 193.976562 C 374.933594 193.933594 374.945312 193.898438 374.945312 193.851562 C 374.945312 193.816406 374.933594 193.78125 374.933594 193.738281 C 374.933594 193.695312 374.925781 193.652344 374.917969 193.597656 C 374.910156 193.527344 374.890625 193.464844 374.882812 193.394531 C 374.875 193.34375 374.855469 193.300781 374.839844 193.246094 C 374.820312 193.195312 374.792969 193.132812 374.769531 193.078125 C 374.742188 193.027344 374.714844 192.972656 374.679688 192.921875 C 374.652344 192.878906 374.628906 192.832031 374.601562 192.796875 C 374.566406 192.746094 374.523438 192.691406 374.476562 192.648438 C 374.441406 192.613281 374.417969 192.578125 374.382812 192.550781 C 374.335938 192.507812 374.285156 192.472656 374.230469 192.429688 C 374.1875 192.394531 374.144531 192.367188 374.101562 192.332031 C 374.054688 192.304688 374.003906 192.28125 373.949219 192.253906 C 373.898438 192.226562 373.835938 192.199219 373.785156 192.183594 C 373.757812 192.175781 373.730469 192.15625 373.703125 192.148438 C 373.679688 192.140625 373.652344 192.140625 373.625 192.128906 C 373.589844 192.121094 373.546875 192.105469 373.511719 192.09375 L 373.511719 6.738281 C 373.582031 6.738281 373.609375 6.722656 373.644531 6.714844 Z M 279.699219 268.253906 C 279.796875 267.960938 279.796875 267.664062 279.742188 267.382812 L 333.488281 245.980469 C 333.488281 245.980469 333.488281 245.980469 333.488281 245.992188 C 333.488281 245.992188 333.5 246 333.5 246 C 333.515625 246.027344 333.523438 246.042969 333.542969 246.0625 C 333.558594 246.078125 333.578125 246.105469 333.59375 246.121094 C 333.621094 246.15625 333.65625 246.203125 333.683594 246.238281 C 333.683594 246.246094 333.691406 246.246094 333.699219 246.246094 C 333.71875 246.261719 333.734375 246.28125 333.753906 246.296875 L 290.8125 311.964844 C 290.769531 311.949219 290.714844 311.929688 290.671875 311.914062 C 290.65625 311.90625 290.636719 311.894531 290.621094 311.894531 C 290.621094 311.894531 290.609375 311.894531 290.609375 311.894531 C 290.574219 311.886719 290.53125 311.878906 290.496094 311.871094 C 290.480469 311.871094 290.453125 311.859375 290.433594 311.851562 C 290.410156 311.84375 290.382812 311.851562 290.363281 311.84375 C 290.355469 311.84375 290.347656 311.84375 290.339844 311.835938 C 290.3125 311.835938 290.292969 311.824219 290.269531 311.824219 C 290.269531 311.824219 290.257812 311.824219 290.257812 311.824219 C 290.234375 311.824219 290.207031 311.824219 290.171875 311.824219 C 290.117188 311.824219 290.074219 311.824219 290.019531 311.824219 L 278.777344 269.289062 C 279.199219 269.105469 279.542969 268.734375 279.699219 268.253906 Z M 322.191406 140.132812 L 372.386719 8.109375 L 335.011719 242.753906 L 321.824219 143.316406 C 322.457031 143.105469 322.957031 142.535156 323.027344 141.832031 C 323.105469 141.128906 322.753906 140.476562 322.191406 140.132812 Z M 372.625 192.199219 C 372.570312 192.21875 372.507812 192.246094 372.457031 192.269531 C 372.402344 192.296875 372.351562 192.324219 372.296875 192.359375 C 372.253906 192.386719 372.210938 192.410156 372.175781 192.4375 C 372.121094 192.472656 372.070312 192.515625 372.027344 192.5625 C 371.992188 192.597656 371.957031 192.621094 371.921875 192.65625 C 371.875 192.703125 371.839844 192.753906 371.796875 192.796875 C 371.761719 192.84375 371.734375 192.886719 371.699219 192.9375 C 371.671875 192.984375 371.648438 193.035156 371.621094 193.089844 C 371.59375 193.140625 371.566406 193.203125 371.550781 193.265625 C 371.542969 193.289062 371.523438 193.316406 371.515625 193.34375 C 371.507812 193.371094 371.507812 193.40625 371.496094 193.429688 C 371.480469 193.484375 371.472656 193.546875 371.460938 193.597656 C 371.453125 193.652344 371.453125 193.695312 371.445312 193.746094 C 371.445312 193.792969 371.4375 193.828125 371.4375 193.871094 C 371.4375 193.898438 371.445312 193.914062 371.445312 193.941406 C 371.445312 193.976562 371.453125 194.003906 371.453125 194.039062 C 371.460938 194.109375 371.472656 194.179688 371.480469 194.242188 C 371.488281 194.277344 371.496094 194.3125 371.507812 194.347656 C 371.523438 194.40625 371.542969 194.46875 371.558594 194.523438 C 371.578125 194.566406 371.601562 194.609375 371.621094 194.652344 C 371.640625 194.699219 371.664062 194.742188 371.691406 194.785156 C 371.726562 194.839844 371.761719 194.882812 371.796875 194.933594 C 371.824219 194.960938 371.839844 194.996094 371.867188 195.023438 C 371.875 195.039062 371.894531 195.050781 371.902344 195.066406 L 335.75 243.449219 C 335.730469 243.441406 335.722656 243.441406 335.707031 243.433594 C 335.660156 243.414062 335.617188 243.398438 335.574219 243.378906 C 335.574219 243.378906 335.566406 243.378906 335.566406 243.378906 L 372.871094 9.175781 L 372.871094 192.140625 C 372.824219 192.148438 372.789062 192.15625 372.753906 192.175781 C 372.71875 192.164062 372.675781 192.183594 372.625 192.199219 Z M 331.222656 301.082031 C 330.984375 300.6875 330.605469 300.429688 330.191406 300.308594 L 335.152344 246.800781 C 335.160156 246.800781 335.160156 246.800781 335.167969 246.800781 L 372.183594 370.882812 L 330.90625 303.316406 C 331.511719 302.753906 331.679688 301.8125 331.222656 301.082031 Z M 291.71875 312.800781 C 291.710938 312.785156 291.699219 312.765625 291.691406 312.757812 C 291.675781 312.722656 291.65625 312.6875 291.628906 312.660156 C 291.613281 312.625 291.585938 312.589844 291.570312 312.566406 C 291.550781 312.546875 291.535156 312.53125 291.523438 312.503906 C 291.5 312.46875 291.472656 312.433594 291.445312 312.40625 C 291.429688 312.378906 291.402344 312.363281 291.382812 312.335938 L 334.324219 246.667969 C 334.332031 246.667969 334.34375 246.675781 334.351562 246.675781 C 334.367188 246.683594 334.386719 246.695312 334.402344 246.703125 C 334.421875 246.710938 334.449219 246.71875 334.464844 246.730469 C 334.472656 246.730469 334.472656 246.738281 334.484375 246.738281 C 334.492188 246.738281 334.5 246.738281 334.507812 246.746094 L 329.558594 300.253906 C 329.296875 300.28125 329.039062 300.351562 328.804688 300.5 C 328.207031 300.871094 327.90625 301.53125 327.96875 302.191406 Z M 335.792969 246.597656 C 335.792969 246.597656 335.800781 246.597656 335.792969 246.597656 C 335.8125 246.589844 335.820312 246.589844 335.828125 246.578125 C 335.855469 246.5625 335.890625 246.542969 335.917969 246.527344 C 335.933594 246.519531 335.953125 246.507812 335.96875 246.492188 C 336.003906 246.464844 336.039062 246.4375 336.066406 246.414062 C 336.082031 246.402344 336.09375 246.394531 336.109375 246.378906 C 336.144531 246.351562 336.179688 246.324219 336.207031 246.289062 C 336.234375 246.261719 336.257812 246.238281 336.285156 246.210938 C 336.3125 246.175781 336.347656 246.148438 336.375 246.113281 C 336.382812 246.105469 336.382812 246.105469 336.390625 246.097656 C 336.398438 246.085938 336.398438 246.085938 336.410156 246.078125 C 336.417969 246.0625 336.425781 246.050781 336.433594 246.035156 C 336.453125 246.007812 336.46875 245.972656 336.496094 245.945312 C 336.523438 245.910156 336.539062 245.875 336.558594 245.839844 C 336.566406 245.816406 336.585938 245.789062 336.59375 245.769531 C 336.609375 245.726562 336.628906 245.683594 336.644531 245.640625 C 336.65625 245.613281 336.664062 245.59375 336.671875 245.570312 C 336.671875 245.558594 336.679688 245.550781 336.679688 245.550781 C 336.679688 245.550781 336.679688 245.542969 336.679688 245.542969 C 336.679688 245.535156 336.679688 245.523438 336.691406 245.515625 C 336.699219 245.5 336.699219 245.480469 336.699219 245.464844 C 336.707031 245.429688 336.714844 245.382812 336.726562 245.347656 C 336.726562 245.324219 336.734375 245.304688 336.742188 245.277344 L 355.960938 244.382812 C 356.148438 245.148438 356.789062 245.683594 357.5625 245.734375 L 372.4375 369.414062 Z M 357.457031 242.21875 C 356.640625 242.324219 356.03125 242.949219 355.917969 243.730469 L 336.699219 244.628906 C 336.691406 244.601562 336.679688 244.582031 336.671875 244.558594 C 336.664062 244.511719 336.644531 244.46875 336.628906 244.425781 C 336.621094 244.40625 336.621094 244.390625 336.621094 244.382812 C 336.621094 244.371094 336.609375 244.371094 336.609375 244.363281 C 336.609375 244.363281 336.609375 244.355469 336.609375 244.355469 C 336.601562 244.328125 336.585938 244.300781 336.566406 244.265625 C 336.558594 244.25 336.550781 244.222656 336.539062 244.207031 C 336.53125 244.1875 336.515625 244.160156 336.503906 244.144531 C 336.488281 244.117188 336.480469 244.089844 336.460938 244.066406 C 336.445312 244.039062 336.425781 244.019531 336.410156 243.996094 C 336.390625 243.976562 336.382812 243.949219 336.363281 243.933594 C 336.355469 243.914062 336.339844 243.90625 336.328125 243.890625 C 336.3125 243.871094 336.304688 243.855469 336.285156 243.835938 L 372.332031 195.59375 L 357.871094 242.21875 C 357.738281 242.203125 357.597656 242.203125 357.457031 242.21875 Z M 291.769531 314.289062 C 291.796875 314.226562 291.816406 314.164062 291.832031 314.101562 C 291.832031 314.101562 291.832031 314.09375 291.832031 314.09375 C 291.832031 314.085938 291.832031 314.085938 291.839844 314.078125 C 291.851562 314.042969 291.859375 314.007812 291.867188 313.972656 C 291.875 313.945312 291.886719 313.917969 291.886719 313.890625 C 291.886719 313.867188 291.886719 313.847656 291.894531 313.820312 C 291.894531 313.785156 291.902344 313.761719 291.910156 313.726562 C 291.910156 313.726562 291.910156 313.726562 291.910156 313.714844 C 291.910156 313.707031 291.910156 313.691406 291.910156 313.679688 C 291.910156 313.664062 291.910156 313.644531 291.910156 313.628906 C 291.910156 313.574219 291.910156 313.53125 291.910156 313.480469 C 291.910156 313.460938 291.910156 313.445312 291.910156 313.425781 L 328.144531 302.796875 C 328.160156 302.839844 328.179688 302.875 328.207031 302.917969 C 328.652344 303.648438 329.570312 303.949219 330.34375 303.65625 L 372.035156 371.902344 C 372.027344 371.910156 372.015625 371.929688 372 371.9375 L 291.753906 314.359375 C 291.753906 314.332031 291.761719 314.3125 291.769531 314.289062 Z M 358.203125 245.664062 C 359.003906 245.410156 359.523438 244.636719 359.425781 243.765625 C 359.347656 243.160156 358.988281 242.675781 358.496094 242.414062 L 372.878906 196.035156 L 372.878906 367.707031 Z M 371.9375 7.441406 L 321.578125 139.894531 C 321.542969 139.886719 321.496094 139.878906 321.460938 139.871094 C 320.609375 139.773438 319.816406 140.316406 319.570312 141.117188 L 284 137.277344 C 283.964844 136.855469 283.777344 136.457031 283.488281 136.167969 Z M 283.929688 137.925781 L 319.5 141.769531 C 319.5625 142.59375 320.222656 143.296875 321.074219 143.386719 C 321.109375 143.386719 321.136719 143.386719 321.164062 143.386719 L 334.386719 243.0625 L 283.285156 138.824219 C 283.585938 138.605469 283.8125 138.296875 283.929688 137.925781 Z M 221.066406 211.578125 C 221.398438 212.195312 222.066406 212.589844 222.804688 212.511719 C 223.414062 212.441406 223.921875 212.078125 224.1875 211.570312 L 333.21875 244.839844 C 333.21875 244.847656 333.21875 244.855469 333.21875 244.863281 C 333.21875 244.875 333.21875 244.882812 333.21875 244.902344 C 333.21875 244.902344 333.21875 244.910156 333.21875 244.910156 C 333.21875 244.945312 333.21875 244.980469 333.21875 245.023438 C 333.21875 245.023438 333.21875 245.03125 333.21875 245.03125 C 333.21875 245.050781 333.21875 245.058594 333.21875 245.078125 C 333.21875 245.078125 333.21875 245.085938 333.21875 245.085938 C 333.21875 245.09375 333.21875 245.113281 333.21875 245.121094 C 333.21875 245.121094 333.21875 245.128906 333.21875 245.128906 C 333.21875 245.148438 333.21875 245.164062 333.21875 245.183594 C 333.21875 245.199219 333.226562 245.21875 333.226562 245.234375 C 333.226562 245.242188 333.226562 245.261719 333.226562 245.269531 C 333.226562 245.296875 333.234375 245.324219 333.242188 245.339844 C 333.242188 245.347656 333.242188 245.359375 333.242188 245.367188 L 279.496094 266.765625 C 279.285156 266.433594 278.960938 266.160156 278.546875 266.027344 C 277.722656 265.765625 276.851562 266.140625 276.457031 266.871094 L 162.132812 230.472656 C 162.140625 230.382812 162.148438 230.296875 162.148438 230.207031 C 162.148438 230.15625 162.132812 230.101562 162.132812 230.050781 Z M 161.929688 231.097656 L 276.253906 267.496094 C 276.148438 268.324219 276.648438 269.132812 277.476562 269.394531 C 277.695312 269.464844 277.921875 269.484375 278.132812 269.472656 L 289.378906 312 C 289.371094 312 289.371094 312.011719 289.363281 312.011719 C 289.351562 312.019531 289.34375 312.019531 289.335938 312.027344 C 289.300781 312.046875 289.273438 312.0625 289.246094 312.082031 C 289.238281 312.089844 289.230469 312.089844 289.222656 312.097656 C 289.1875 312.125 289.140625 312.140625 289.105469 312.167969 C 289.089844 312.1875 289.070312 312.203125 289.054688 312.210938 C 289.027344 312.230469 289.011719 312.246094 288.984375 312.273438 C 288.976562 312.28125 288.976562 312.28125 288.964844 312.292969 C 288.941406 312.316406 288.90625 312.34375 288.878906 312.371094 C 288.851562 312.398438 288.835938 312.421875 288.816406 312.449219 C 288.800781 312.476562 288.78125 312.492188 288.765625 312.519531 C 288.738281 312.546875 288.710938 312.574219 288.695312 312.609375 C 288.683594 312.617188 288.683594 312.625 288.675781 312.632812 C 288.660156 312.660156 288.640625 312.695312 288.625 312.730469 C 288.605469 312.757812 288.597656 312.777344 288.589844 312.800781 C 288.578125 312.828125 288.5625 312.847656 288.554688 312.871094 C 288.554688 312.882812 288.542969 312.890625 288.542969 312.898438 C 288.527344 312.941406 288.507812 312.996094 288.492188 313.039062 C 288.484375 313.066406 288.472656 313.09375 288.464844 313.109375 C 288.464844 313.128906 288.457031 313.136719 288.457031 313.144531 C 288.457031 313.144531 288.457031 313.152344 288.457031 313.152344 L 164.257812 304.941406 C 164.164062 304.148438 163.582031 303.550781 162.78125 303.410156 L 160.769531 231.976562 C 161.261719 231.878906 161.683594 231.546875 161.929688 231.097656 Z M 162.367188 306.9375 C 163.257812 306.972656 163.988281 306.425781 164.199219 305.609375 L 288.394531 313.820312 C 288.394531 313.820312 288.394531 313.832031 288.394531 313.832031 C 288.402344 313.890625 288.414062 313.945312 288.429688 314.007812 C 288.429688 314.023438 288.429688 314.042969 288.4375 314.058594 C 288.4375 314.066406 288.449219 314.078125 288.449219 314.085938 C 288.449219 314.09375 288.449219 314.101562 288.457031 314.113281 C 288.464844 314.128906 288.472656 314.148438 288.484375 314.164062 C 288.5 314.21875 288.519531 314.269531 288.542969 314.3125 C 288.5625 314.339844 288.570312 314.375 288.578125 314.410156 C 288.578125 314.410156 288.589844 314.417969 288.589844 314.417969 C 288.597656 314.4375 288.613281 314.453125 288.625 314.480469 C 288.640625 314.507812 288.648438 314.523438 288.667969 314.550781 C 288.695312 314.59375 288.71875 314.640625 288.746094 314.683594 C 288.753906 314.691406 288.765625 314.710938 288.773438 314.71875 C 288.78125 314.726562 288.789062 314.734375 288.800781 314.746094 C 288.808594 314.761719 288.824219 314.769531 288.835938 314.78125 C 288.878906 314.824219 288.914062 314.867188 288.957031 314.910156 C 288.976562 314.929688 288.992188 314.945312 289.011719 314.957031 C 289.011719 314.957031 289.019531 314.964844 289.019531 314.964844 C 289.027344 314.964844 289.027344 314.972656 289.035156 314.972656 C 289.054688 314.980469 289.070312 314.992188 289.082031 315.007812 C 289.117188 315.035156 289.160156 315.0625 289.195312 315.085938 C 289.230469 315.105469 289.257812 315.132812 289.292969 315.148438 C 289.300781 315.15625 289.308594 315.15625 289.316406 315.15625 C 289.335938 315.167969 289.363281 315.175781 289.378906 315.183594 C 289.398438 315.195312 289.414062 315.203125 289.433594 315.210938 C 289.46875 315.226562 289.492188 315.246094 289.527344 315.253906 L 285.089844 341.894531 C 284.359375 341.914062 283.699219 342.359375 283.445312 343.089844 C 283.402344 343.230469 283.375 343.371094 283.367188 343.503906 L 7.117188 372.660156 L 161.023438 306.15625 C 161.3125 306.59375 161.78125 306.886719 162.367188 306.9375 Z M 285.738281 342.019531 L 290.179688 315.378906 C 290.199219 315.378906 290.222656 315.371094 290.242188 315.371094 C 290.277344 315.371094 290.320312 315.359375 290.355469 315.359375 C 290.355469 315.359375 290.363281 315.359375 290.363281 315.359375 C 290.375 315.359375 290.382812 315.359375 290.390625 315.359375 C 290.445312 315.351562 290.488281 315.34375 290.539062 315.332031 C 290.558594 315.332031 290.566406 315.332031 290.585938 315.324219 C 290.59375 315.324219 290.601562 315.316406 290.609375 315.316406 C 290.621094 315.316406 290.628906 315.316406 290.636719 315.308594 C 290.664062 315.296875 290.679688 315.289062 290.699219 315.28125 C 290.707031 315.28125 290.726562 315.273438 290.734375 315.273438 C 290.769531 315.261719 290.796875 315.246094 290.832031 315.226562 C 290.882812 315.203125 290.9375 315.183594 290.980469 315.15625 C 291.023438 315.132812 291.058594 315.105469 291.101562 315.078125 C 291.136719 315.0625 291.164062 315.042969 291.199219 315.015625 C 291.21875 315 291.234375 314.980469 291.261719 314.972656 C 291.296875 314.945312 291.324219 314.921875 291.359375 314.886719 L 371.242188 372.203125 L 286.882812 343.910156 C 286.996094 343.109375 286.539062 342.316406 285.738281 342.019531 Z M 285.738281 342.019531 " fill-opacity="1" fill-rule="nonzero"/></g></svg>