<svg xmlns="http://www.w3.org/2000/svg" xmlns:xlink="http://www.w3.org/1999/xlink" width="500" zoomAndPan="magnify" viewBox="0 0 375 374.999991" height="500" preserveAspectRatio="xMidYMid meet" version="1.0"><path fill="#ffca0f" d="M 369.796875 116.859375 C 366.539062 107.234375 362.246094 98.054688 356.914062 89.464844 C 346.105469 71.988281 331.589844 57.03125 314.410156 45.703125 C 307.746094 41.261719 299.675781 36.296875 290.941406 32.523438 C 285.238281 30.078125 279.242188 28.375 273.167969 27.488281 C 268.800781 26.746094 264.28125 26.230469 259.988281 25.710938 C 257.175781 25.414062 254.285156 25.042969 251.472656 24.671875 C 248.066406 24.230469 244.585938 23.636719 241.179688 23.117188 C 233.925781 22.007812 226.445312 20.824219 218.96875 20.304688 C 196.234375 18.75 173.429688 20.898438 151.4375 26.820312 C 140.480469 29.78125 129.742188 33.632812 119.449219 38.445312 C 116.933594 39.632812 114.414062 40.890625 111.898438 42.148438 C 63.621094 67.324219 26.003906 113.675781 11.417969 166.25 C -3.167969 218.820312 5.050781 277.910156 33.558594 324.410156 C 40 334.925781 46.589844 339.8125 53.769531 339.515625 C 61.992188 339.144531 66.953125 332.183594 71.765625 325.445312 C 74.429688 321.746094 77.097656 317.96875 80.355469 315.15625 C 89.386719 307.378906 102.863281 308.046875 112.414062 311.304688 C 120.5625 314.042969 127.964844 318.707031 135.148438 323.152344 C 137.589844 324.632812 140.035156 326.1875 142.550781 327.667969 C 168.171875 342.773438 198.011719 350.398438 227.777344 350.398438 C 250.214844 350.472656 272.503906 346.03125 293.160156 337.21875 C 310.265625 329.890625 321.296875 321.003906 327.074219 309.898438 C 335.292969 293.976562 332.035156 275.316406 328.851562 257.25 C 325.59375 238.738281 322.261719 219.636719 331.738281 204.160156 C 336.179688 196.828125 343.140625 191.277344 349.878906 185.871094 C 356.617188 180.464844 363.726562 174.839844 368.316406 167.210938 C 378.164062 151.292969 374.535156 131.003906 369.796875 116.859375 Z M 366.984375 166.617188 C 362.46875 173.949219 355.582031 179.503906 348.84375 184.835938 C 342.03125 190.3125 334.996094 195.941406 330.332031 203.492188 C 320.558594 219.414062 323.964844 238.8125 327.296875 257.621094 C 330.40625 275.464844 333.664062 293.828125 325.667969 309.304688 C 320.113281 320.042969 309.230469 328.777344 292.496094 335.886719 C 244.957031 356.25 187.792969 352.621094 143.21875 326.410156 C 140.773438 324.929688 138.257812 323.375 135.8125 321.894531 C 128.558594 317.375 121.078125 312.710938 112.785156 309.898438 C 108.269531 308.34375 103.457031 307.601562 98.71875 307.601562 C 91.832031 307.601562 84.871094 309.378906 79.316406 314.117188 C 75.910156 317.003906 73.171875 320.929688 70.433594 324.707031 C 65.617188 331.445312 61.101562 337.8125 53.625 338.109375 C 47.035156 338.40625 40.886719 333.664062 34.742188 323.742188 C 6.53125 277.539062 -1.6875 218.820312 12.824219 166.617188 C 27.335938 114.417969 64.65625 68.433594 112.710938 43.480469 C 115.15625 42.222656 117.671875 40.964844 120.191406 39.777344 C 130.410156 35.039062 140.996094 31.191406 151.882812 28.226562 C 173.726562 22.378906 196.382812 20.230469 218.894531 21.785156 C 226.296875 22.304688 233.777344 23.488281 241.03125 24.597656 C 244.4375 25.117188 247.917969 25.636719 251.324219 26.15625 C 254.140625 26.523438 257.027344 26.894531 259.839844 27.191406 C 264.136719 27.710938 268.652344 28.226562 273.019531 28.894531 C 279.019531 29.855469 284.867188 31.484375 290.421875 33.855469 C 299.085938 37.558594 307.007812 42.519531 313.597656 46.886719 C 330.628906 58.066406 344.917969 72.878906 355.65625 90.203125 C 360.914062 98.71875 365.207031 107.828125 368.390625 117.304688 C 373.054688 131.226562 376.609375 150.996094 366.984375 166.617188 Z M 342.625 92.128906 C 337.664062 84.058594 331.8125 76.503906 325.222656 69.765625 C 323.148438 67.621094 320.929688 65.546875 318.707031 63.546875 C 313.746094 59.179688 308.488281 55.179688 302.933594 51.625 C 297.085938 47.851562 289.308594 43.109375 280.871094 39.632812 C 275.539062 37.410156 269.910156 35.929688 264.210938 35.113281 C 260.804688 34.597656 257.546875 34.226562 254.730469 33.929688 L 251.25 33.558594 C 248.882812 33.335938 246.363281 33.039062 243.921875 32.746094 C 240.957031 32.375 237.996094 32.003906 235.035156 31.558594 C 228 30.597656 220.816406 29.632812 213.5625 29.265625 C 202.972656 28.746094 192.457031 29.117188 181.945312 30.300781 C 171.578125 31.410156 161.359375 33.335938 151.363281 36.152344 C 141.367188 38.890625 131.59375 42.519531 122.191406 47.035156 C 119.894531 48.144531 117.597656 49.257812 115.304688 50.515625 C 96.050781 60.882812 78.726562 74.433594 64.136719 90.648438 C 44.515625 112.195312 30.371094 138.1875 22.820312 166.324219 C 16.601562 190.238281 15.195312 215.191406 18.746094 239.703125 C 22.226562 264.210938 30.667969 287.683594 43.628906 308.785156 C 49.476562 318.191406 55.402344 322.632812 61.917969 322.410156 C 69.394531 322.113281 73.835938 315.96875 78.207031 309.972656 C 80.574219 306.714844 83.019531 303.308594 85.980469 300.9375 C 92.867188 295.164062 103.679688 293.976562 114.785156 297.605469 C 122.929688 300.269531 130.410156 304.640625 137.738281 308.859375 C 139.664062 309.972656 141.589844 311.082031 143.589844 312.191406 C 169.652344 326.78125 198.679688 334.40625 226.667969 334.40625 C 236.960938 334.40625 247.179688 333.371094 257.25 331.222656 C 266.355469 329.222656 275.316406 326.261719 283.832031 322.410156 C 299.378906 315.375 309.449219 306.863281 314.558594 296.273438 C 321.519531 281.835938 318.558594 265.101562 315.671875 248.957031 C 314.558594 242.8125 313.449219 236.445312 312.855469 230.296875 C 311.597656 216.746094 313.375 207.046875 318.558594 198.753906 C 322.707031 192.089844 329.148438 186.980469 335.292969 181.945312 C 341.585938 176.835938 348.175781 171.652344 352.472656 164.621094 C 361.726562 149.664062 358.617188 130.855469 354.324219 117.75 C 351.433594 108.714844 347.511719 100.199219 342.625 92.128906 Z M 351.285156 163.65625 C 347.140625 170.394531 340.699219 175.578125 334.476562 180.613281 C 328.257812 185.648438 321.742188 190.90625 317.375 197.792969 C 311.96875 206.382812 310.191406 216.378906 311.449219 230.222656 C 312.042969 236.445312 313.152344 242.738281 314.265625 248.957031 C 317.152344 264.878906 320.039062 281.390625 313.300781 295.382812 C 308.339844 305.601562 298.566406 313.96875 283.3125 320.855469 C 274.871094 324.632812 266.058594 327.59375 257.027344 329.519531 C 247.105469 331.667969 236.886719 332.703125 226.742188 332.703125 C 199.050781 332.703125 170.246094 325.152344 144.402344 310.710938 C 142.476562 309.601562 140.554688 308.492188 138.554688 307.378906 C 131.148438 303.160156 123.597656 298.789062 115.378906 296.050781 C 111.230469 294.644531 106.9375 293.902344 102.566406 293.902344 C 95.828125 293.902344 89.683594 295.828125 85.167969 299.679688 C 82.132812 302.269531 79.613281 305.675781 77.167969 309.007812 C 72.800781 314.933594 68.730469 320.558594 61.992188 320.78125 C 56.066406 321.003906 50.585938 316.785156 45.035156 307.824219 C 19.636719 266.804688 11.863281 213.933594 24.375 166.546875 C 31.855469 138.628906 45.847656 112.863281 65.324219 91.460938 C 79.835938 75.394531 97.015625 61.992188 116.042969 51.699219 C 118.265625 50.515625 120.5625 49.40625 122.855469 48.292969 C 132.1875 43.851562 141.8125 40.296875 151.734375 37.484375 C 161.65625 34.742188 171.875 32.820312 182.09375 31.707031 C 192.53125 30.523438 203.046875 30.226562 213.5625 30.746094 C 220.746094 31.117188 227.925781 32.078125 234.886719 33.039062 C 237.773438 33.410156 240.8125 33.855469 243.773438 34.226562 C 246.214844 34.523438 248.734375 34.742188 251.175781 35.039062 L 254.65625 35.410156 C 257.472656 35.707031 260.730469 36.078125 264.0625 36.59375 C 269.6875 37.410156 275.09375 38.890625 280.351562 41.039062 C 288.644531 44.445312 296.34375 49.183594 302.121094 52.886719 C 307.601562 56.4375 312.78125 60.363281 317.671875 64.660156 C 319.890625 66.582031 322.039062 68.65625 324.113281 70.804688 C 330.628906 77.542969 336.402344 84.945312 341.289062 93.019531 C 346.105469 100.941406 350.027344 109.382812 352.914062 118.191406 C 357.210938 130.929688 360.320312 149.21875 351.285156 163.65625 Z M 328.332031 94.792969 C 323.816406 87.316406 318.410156 80.355469 312.265625 74.136719 C 310.339844 72.136719 308.265625 70.210938 306.191406 68.433594 C 301.601562 64.363281 296.640625 60.734375 291.457031 57.476562 C 283.460938 52.441406 277.09375 49.109375 270.800781 46.664062 C 265.839844 44.738281 260.582031 43.40625 255.324219 42.667969 C 252.066406 42.222656 248.957031 41.925781 246.511719 41.628906 L 242.515625 41.261719 C 240.515625 41.113281 238.441406 40.890625 236.441406 40.667969 C 234 40.445312 231.554688 40.148438 229.113281 39.851562 C 222.300781 39.113281 215.265625 38.296875 208.304688 38.074219 C 198.53125 37.855469 188.683594 38.371094 178.984375 39.632812 C 169.652344 40.742188 160.398438 42.667969 151.289062 45.257812 C 142.257812 47.851562 133.445312 51.257812 124.929688 55.402344 C 122.632812 56.511719 120.632812 57.550781 118.710938 58.585938 C 101.085938 68.359375 85.242188 81.023438 71.839844 95.980469 C 53.769531 115.898438 40.960938 140.035156 34.519531 166.101562 C 29.261719 187.5 28.300781 209.640625 31.484375 231.410156 C 34.667969 253.179688 42.292969 273.984375 53.917969 292.71875 C 59.101562 300.9375 64.285156 304.9375 69.914062 304.9375 L 70.285156 304.9375 C 76.949219 304.714844 81.019531 299.382812 84.945312 294.199219 C 87.09375 291.386719 89.3125 288.5 91.90625 286.351562 C 97.976562 281.390625 107.601562 280.351562 117.523438 283.609375 C 126.113281 286.351562 133.742188 290.421875 141.738281 294.644531 L 144.921875 296.347656 C 165.136719 307.007812 193.71875 318.191406 224.816406 318.191406 C 233.332031 318.191406 241.847656 317.300781 250.140625 315.597656 C 258.65625 313.746094 266.949219 310.933594 274.796875 307.15625 C 288.71875 300.492188 297.972656 292.050781 302.34375 282.128906 C 308.042969 269.171875 305.304688 254.4375 302.710938 240.074219 C 301.601562 234 300.417969 227.707031 299.898438 221.636719 C 298.9375 209.566406 300.714844 200.457031 305.601562 192.90625 C 309.449219 186.832031 315.300781 182.167969 320.929688 177.578125 C 326.777344 172.914062 332.773438 168.027344 336.847656 161.585938 C 345.511719 147.738281 342.773438 130.484375 338.996094 118.414062 C 336.402344 110.195312 332.847656 102.273438 328.332031 94.792969 Z M 335.589844 160.769531 C 331.738281 166.988281 325.742188 171.726562 320.039062 176.394531 C 314.265625 180.984375 308.339844 185.796875 304.339844 192.015625 C 299.308594 199.867188 297.382812 209.34375 298.417969 221.710938 C 298.9375 227.855469 300.121094 234.148438 301.230469 240.292969 C 303.972656 255.03125 306.488281 268.949219 301.007812 281.464844 C 296.789062 291.015625 287.753906 299.234375 274.207031 305.75 C 266.503906 309.453125 258.285156 312.265625 249.917969 314.117188 C 209.785156 322.632812 171.058594 308.417969 145.660156 295.015625 L 142.550781 293.3125 C 134.777344 289.164062 126.78125 284.945312 118.042969 282.128906 C 114.339844 280.871094 110.417969 280.277344 106.492188 280.207031 C 100.496094 280.207031 95.089844 281.90625 91.089844 285.167969 C 88.351562 287.386719 86.054688 290.347656 83.90625 293.3125 C 79.984375 298.496094 76.355469 303.308594 70.359375 303.457031 C 65.101562 303.605469 60.214844 299.828125 55.253906 291.976562 C 32.296875 255.398438 25.335938 209.714844 36 166.472656 C 42.367188 140.628906 55.105469 116.710938 72.949219 97.015625 C 86.277344 82.132812 101.976562 69.621094 119.449219 59.917969 C 121.300781 58.882812 123.300781 57.847656 125.59375 56.734375 C 134.035156 52.664062 142.773438 49.257812 151.734375 46.664062 C 160.691406 44.074219 169.875 42.222656 179.203125 41.113281 C 188.832031 39.851562 198.605469 39.335938 208.304688 39.558594 C 215.265625 39.777344 222.226562 40.519531 229.039062 41.332031 C 231.480469 41.628906 233.925781 41.851562 236.367188 42.148438 C 238.367188 42.371094 240.441406 42.519531 242.441406 42.742188 L 246.363281 43.109375 C 248.734375 43.332031 251.917969 43.628906 255.101562 44.148438 C 260.285156 44.886719 265.394531 46.148438 270.28125 48.070312 C 276.425781 50.515625 282.71875 53.773438 290.644531 58.734375 C 295.753906 61.992188 300.640625 65.546875 305.15625 69.546875 C 307.230469 71.324219 309.230469 73.246094 311.152344 75.246094 C 317.226562 81.394531 322.558594 88.277344 327 95.609375 C 331.441406 102.941406 334.996094 110.714844 337.589844 118.859375 C 341.363281 130.632812 343.957031 147.441406 335.589844 160.769531 Z M 314.042969 97.535156 C 309.894531 90.648438 305.007812 84.28125 299.378906 78.578125 C 297.605469 76.726562 295.679688 74.949219 293.753906 73.320312 C 289.457031 69.621094 284.867188 66.289062 280.054688 63.324219 C 273.984375 59.476562 267.542969 56.292969 260.878906 53.699219 C 256.210938 51.996094 251.324219 50.8125 246.4375 50.21875 C 244.070312 49.921875 241.550781 49.628906 238.292969 49.40625 L 233.703125 49.035156 C 232.148438 48.886719 230.59375 48.8125 229.039062 48.664062 L 223.410156 48.21875 C 216.746094 47.628906 209.859375 47.035156 202.972656 47.035156 L 202.898438 47.035156 C 193.941406 47.109375 184.90625 47.777344 176.019531 49.109375 C 167.652344 50.292969 159.359375 52.070312 151.214844 54.515625 C 143.070312 56.957031 135.222656 60.140625 127.667969 63.917969 C 125.523438 65.027344 123.746094 65.917969 122.117188 66.878906 C 106.789062 75.617188 92.421875 87.242188 79.464844 101.53125 C 62.953125 119.824219 51.402344 142.035156 45.996094 166.101562 C 37.183594 204.828125 43.773438 245.253906 64.0625 276.945312 C 68.730469 284.277344 73.46875 287.683594 78.503906 287.683594 C 84.425781 287.609375 87.980469 283.019531 91.535156 278.574219 C 93.386719 276.207031 95.386719 273.761719 97.679688 271.910156 C 103.011719 267.765625 111.378906 266.949219 120.117188 269.691406 C 129.59375 272.652344 138.183594 276.726562 146.179688 280.648438 C 165.949219 290.347656 193.71875 302.046875 222.890625 302.046875 C 229.628906 302.046875 236.367188 301.382812 243.03125 300.050781 C 250.953125 298.421875 258.582031 295.753906 265.765625 292.050781 C 278.203125 285.683594 286.421875 277.613281 290.125 268.136719 C 294.640625 256.660156 292.125 243.773438 289.753906 231.335938 C 288.570312 225.335938 287.386719 219.117188 287.015625 213.121094 C 286.273438 202.308594 288.050781 194.015625 292.714844 187.054688 C 296.269531 181.648438 301.601562 177.355469 306.710938 173.285156 C 312.042969 168.988281 317.597656 164.472656 321.371094 158.621094 C 329.441406 145.960938 327.148438 130.113281 323.816406 119.15625 C 321.296875 111.601562 318.113281 104.347656 314.042969 97.535156 Z M 319.964844 157.882812 C 316.335938 163.582031 310.933594 167.953125 305.675781 172.171875 C 300.417969 176.394531 295.085938 180.6875 291.382812 186.316406 C 286.570312 193.570312 284.71875 202.160156 285.460938 213.269531 C 285.90625 219.339844 287.089844 225.632812 288.273438 231.632812 C 290.71875 244.441406 293.085938 256.585938 288.71875 267.617188 C 285.164062 276.726562 277.167969 284.5 265.023438 290.71875 C 257.988281 294.347656 250.511719 297.011719 242.734375 298.640625 C 206.972656 306.046875 170.835938 291.164062 146.773438 279.316406 C 138.777344 275.390625 130.113281 271.320312 120.5625 268.285156 C 117.226562 267.246094 113.75 266.65625 110.269531 266.65625 C 105.011719 266.65625 100.273438 268.0625 96.792969 270.726562 C 94.347656 272.652344 92.347656 275.171875 90.425781 277.613281 C 86.945312 281.980469 83.761719 286.054688 78.578125 286.128906 L 78.355469 286.128906 C 73.910156 286.128906 69.617188 282.871094 65.324219 276.058594 C 45.257812 244.664062 38.738281 204.679688 47.476562 166.324219 C 52.808594 142.554688 64.210938 120.5625 80.5 102.421875 C 93.3125 88.277344 107.601562 76.652344 122.78125 68.0625 C 124.410156 67.175781 126.113281 66.214844 128.261719 65.101562 C 135.738281 61.328125 143.589844 58.214844 151.585938 55.773438 C 159.65625 53.328125 167.875 51.550781 176.167969 50.441406 C 184.980469 49.109375 193.867188 48.441406 202.824219 48.367188 L 202.898438 48.367188 C 209.710938 48.367188 216.523438 48.960938 223.1875 49.554688 L 228.742188 49.996094 L 233.40625 50.367188 C 234.960938 50.441406 236.441406 50.589844 237.996094 50.738281 C 241.253906 51.035156 243.699219 51.257812 246.140625 51.550781 C 250.953125 52.144531 255.621094 53.328125 260.136719 54.957031 C 266.726562 57.550781 273.09375 60.734375 279.09375 64.511719 C 283.90625 67.398438 288.421875 70.730469 292.640625 74.359375 C 294.566406 75.988281 296.417969 77.765625 298.195312 79.542969 C 303.75 85.167969 308.636719 91.390625 312.707031 98.199219 C 316.707031 104.863281 319.890625 112.046875 322.1875 119.527344 C 325.445312 130.335938 327.667969 145.664062 319.964844 157.882812 Z M 299.75 100.273438 C 296.046875 93.980469 291.605469 88.203125 286.421875 83.09375 C 284.71875 81.394531 283.015625 79.835938 281.164062 78.28125 C 277.167969 74.949219 272.945312 71.914062 268.429688 69.25 C 262.800781 65.84375 256.804688 63.027344 250.585938 60.808594 C 246.289062 59.328125 241.847656 58.363281 237.332031 57.847656 C 235.109375 57.625 232.738281 57.402344 229.851562 57.179688 C 228.074219 57.105469 226.222656 56.957031 224.445312 56.882812 L 221.335938 56.734375 L 217.855469 56.511719 C 211.191406 56.144531 204.304688 55.699219 197.492188 55.921875 C 189.273438 56.21875 181.054688 57.105469 172.910156 58.511719 C 165.507812 59.695312 158.175781 61.398438 150.992188 63.695312 C 143.8125 65.992188 136.925781 68.878906 130.261719 72.359375 C 128.335938 73.394531 126.78125 74.210938 125.375 75.023438 C 111.824219 83.023438 98.863281 93.832031 87.019531 107.011719 C 72.0625 123.671875 61.917969 144.035156 57.621094 166.027344 C 50.808594 199.792969 56.882812 234.445312 74.28125 261.101562 C 78.355469 267.320312 82.425781 270.355469 86.796875 270.355469 C 91.90625 270.355469 95.089844 266.582031 98.125 262.953125 C 99.679688 260.953125 101.457031 259.175781 103.382812 257.546875 C 109.898438 252.734375 119.003906 254.808594 122.632812 255.84375 C 131.074219 258.289062 139.292969 261.324219 147.363281 264.878906 C 169.652344 274.949219 194.382812 286.054688 219.929688 286.054688 C 225.261719 286.054688 230.59375 285.535156 235.847656 284.5 C 243.105469 283.019531 250.066406 280.425781 256.582031 276.875 C 264.136719 272.652344 273.984375 265.320312 277.757812 254.066406 C 281.089844 244.070312 278.871094 233.039062 276.722656 222.449219 C 275.539062 216.527344 274.277344 210.453125 273.984375 204.53125 C 273.464844 194.980469 275.242188 187.648438 279.609375 181.28125 C 282.867188 176.542969 287.609375 172.691406 292.199219 168.988281 C 297.085938 165.0625 302.121094 160.992188 305.527344 155.660156 C 313.003906 144.109375 311.152344 129.820312 308.339844 119.824219 C 306.265625 113.085938 303.378906 106.421875 299.75 100.273438 Z M 304.195312 154.992188 C 300.863281 160.101562 295.976562 164.101562 291.160156 168.027344 C 286.496094 171.800781 281.683594 175.652344 278.277344 180.613281 C 273.6875 187.277344 271.835938 194.980469 272.355469 204.828125 C 272.648438 210.824219 273.910156 216.96875 275.167969 222.96875 C 277.390625 233.925781 279.535156 244.21875 276.277344 253.84375 C 272.648438 264.582031 263.097656 271.691406 255.769531 275.761719 C 249.398438 279.316406 242.585938 281.835938 235.480469 283.316406 C 204.898438 289.386719 174.613281 275.761719 147.957031 263.691406 C 139.886719 260.066406 131.59375 257.027344 123.152344 254.511719 C 120.191406 253.546875 117.082031 253.105469 113.96875 253.03125 C 109.527344 253.03125 105.601562 254.140625 102.566406 256.363281 C 100.496094 257.992188 98.644531 259.917969 97.015625 261.988281 C 94.050781 265.542969 91.238281 268.875 86.796875 268.875 C 82.945312 268.875 79.242188 266.0625 75.464844 260.285156 C 58.214844 233.925781 52.214844 199.71875 58.953125 166.324219 C 63.25 144.628906 73.320312 124.488281 88.054688 108.050781 C 99.828125 95.015625 112.636719 84.355469 126.113281 76.359375 C 127.445312 75.542969 129 74.726562 130.925781 73.691406 C 137.515625 70.210938 144.402344 67.398438 151.4375 65.101562 C 158.546875 62.882812 165.726562 61.179688 173.132812 59.992188 C 181.203125 58.585938 189.347656 57.699219 197.566406 57.402344 C 204.304688 57.179688 211.117188 57.625 217.78125 57.996094 L 221.261719 58.214844 L 224.371094 58.363281 C 226.148438 58.4375 228 58.511719 229.777344 58.660156 C 232.664062 58.808594 235.035156 59.03125 237.183594 59.328125 C 241.625 59.769531 245.917969 60.808594 250.140625 62.214844 C 256.210938 64.4375 262.136719 67.25 267.6875 70.582031 C 272.132812 73.171875 276.277344 76.136719 280.203125 79.46875 C 281.980469 80.949219 283.683594 82.578125 285.386719 84.207031 C 290.421875 89.242188 294.863281 94.941406 298.492188 101.089844 C 302.121094 107.160156 304.933594 113.675781 306.859375 120.488281 C 309.597656 130.039062 311.375 143.886719 304.195312 154.992188 Z M 285.460938 102.941406 C 282.203125 97.238281 278.128906 92.054688 273.464844 87.464844 C 271.910156 85.984375 270.28125 84.503906 268.652344 83.167969 C 265.023438 80.132812 261.023438 77.46875 256.953125 75.171875 C 251.769531 72.210938 246.289062 69.765625 240.589844 67.917969 C 236.664062 66.65625 232.589844 65.84375 228.445312 65.472656 C 226.371094 65.25 224.222656 65.101562 221.632812 65.027344 C 219.558594 64.953125 217.414062 64.878906 215.339844 64.804688 L 213.117188 64.730469 C 206.304688 64.511719 199.195312 64.363281 192.238281 64.804688 C 184.757812 65.398438 177.355469 66.433594 170.023438 67.992188 C 163.582031 69.175781 157.214844 70.804688 150.992188 72.953125 C 144.773438 75.097656 138.777344 77.765625 133 80.949219 C 131.742188 81.613281 130.261719 82.503906 128.78125 83.390625 C 117.007812 90.796875 105.527344 100.570312 94.644531 112.640625 C 81.613281 127.078125 72.578125 146.035156 69.171875 166.027344 C 64.285156 194.683594 69.839844 223.558594 84.5 245.253906 C 86.722656 248.511719 90.203125 252.957031 95.089844 253.03125 L 95.3125 253.03125 C 99.457031 253.03125 102.195312 250.144531 104.789062 247.328125 C 106.121094 245.773438 107.601562 244.367188 109.230469 243.183594 C 113.007812 240.589844 118.859375 240.21875 125.300781 242.070312 L 129.890625 243.332031 C 136.257812 244.960938 142.476562 247.03125 148.625 249.402344 C 152.84375 251.105469 157.214844 253.03125 161.433594 254.808594 C 179.277344 262.507812 197.640625 270.429688 216.671875 270.429688 C 220.746094 270.429688 224.742188 270.0625 228.742188 269.320312 C 235.40625 267.988281 241.699219 265.542969 247.476562 261.988281 C 254.140625 257.992188 262.652344 250.957031 265.46875 240.292969 C 267.761719 231.777344 265.765625 223.042969 263.765625 213.710938 C 262.507812 208.011719 261.171875 202.085938 260.949219 196.238281 C 260.65625 188.09375 262.507812 181.355469 266.578125 175.726562 C 269.539062 171.582031 273.6875 168.175781 277.757812 164.917969 C 282.203125 161.363281 286.71875 157.660156 289.902344 152.847656 C 296.789062 142.40625 295.382812 129.671875 293.011719 120.710938 C 291.234375 114.566406 288.71875 108.566406 285.460938 102.941406 Z M 288.496094 152.03125 C 285.460938 156.621094 281.015625 160.25 276.722656 163.730469 C 272.648438 167.0625 268.355469 170.46875 265.320312 174.765625 C 261.023438 180.6875 259.101562 187.722656 259.394531 196.164062 C 259.617188 202.085938 260.949219 208.085938 262.210938 213.933594 C 264.210938 223.042969 266.132812 231.632812 263.988281 239.777344 C 261.246094 249.921875 253.027344 256.660156 246.660156 260.582031 C 241.03125 264.0625 234.8125 266.433594 228.371094 267.691406 C 205.492188 272.058594 183.351562 262.507812 161.953125 253.328125 C 157.730469 251.550781 153.363281 249.625 149.140625 247.921875 C 142.996094 245.550781 136.703125 243.476562 130.261719 241.847656 L 125.742188 240.515625 C 118.929688 238.589844 112.636719 239.035156 108.492188 241.847656 C 106.789062 243.109375 105.160156 244.589844 103.753906 246.21875 C 101.234375 248.957031 98.792969 251.550781 95.164062 251.476562 C 91.980469 251.402344 89.015625 249.105469 85.757812 244.367188 C 71.246094 223.042969 65.765625 194.535156 70.578125 166.25 C 73.984375 146.480469 82.871094 127.820312 95.679688 113.527344 C 106.492188 101.53125 117.820312 91.832031 129.519531 84.578125 C 131 83.6875 132.480469 82.875 133.667969 82.207031 C 139.367188 79.097656 145.292969 76.429688 151.363281 74.359375 C 157.507812 72.285156 163.804688 70.65625 170.246094 69.472656 C 177.5 67.992188 184.90625 66.953125 192.3125 66.363281 C 199.195312 65.917969 205.933594 66.066406 213.117188 66.289062 L 215.339844 66.363281 C 217.414062 66.433594 219.484375 66.433594 221.632812 66.582031 C 224.222656 66.65625 226.371094 66.804688 228.371094 67.027344 C 232.371094 67.398438 236.367188 68.210938 240.144531 69.398438 C 245.773438 71.25 251.175781 73.617188 256.285156 76.578125 C 260.359375 78.875 264.210938 81.464844 267.761719 84.429688 C 269.390625 85.761719 271.019531 87.242188 272.503906 88.648438 C 277.09375 93.164062 281.015625 98.273438 284.203125 103.828125 C 287.386719 109.308594 289.828125 115.15625 291.457031 121.304688 C 293.753906 129.746094 295.085938 142.109375 288.496094 152.03125 Z M 271.167969 105.679688 C 268.28125 100.644531 264.726562 95.980469 260.582031 91.980469 C 259.175781 90.648438 257.691406 89.316406 256.136719 88.128906 C 252.804688 85.464844 249.25 83.09375 245.476562 81.097656 C 240.738281 78.503906 235.703125 76.503906 230.519531 74.949219 C 226.890625 73.988281 223.1875 73.320312 219.484375 73.097656 C 217.558594 72.953125 215.5625 72.878906 213.339844 72.804688 C 211.117188 72.730469 208.675781 72.804688 206.304688 72.804688 C 199.789062 72.804688 193.273438 73.097656 186.832031 73.765625 C 180.167969 74.65625 173.503906 75.839844 166.914062 77.46875 C 161.433594 78.652344 156.027344 80.207031 150.769531 82.207031 C 145.515625 84.207031 140.480469 86.648438 135.59375 89.464844 C 134.480469 90.128906 133.222656 90.871094 132.039062 91.683594 C 121.894531 98.421875 112.121094 107.085938 102.125 118.265625 C 90.570312 131.152344 82.945312 148.109375 80.574219 166.101562 C 77.464844 189.945312 82.425781 212.453125 94.570312 229.558594 C 96.421875 232.148438 99.308594 235.628906 103.234375 235.851562 C 106.714844 236.074219 109.007812 233.925781 111.230469 231.777344 C 112.339844 230.667969 113.527344 229.707031 114.859375 228.816406 C 119.003906 226.375 124.707031 227.410156 127.742188 228.226562 C 130.703125 229.039062 133.667969 229.707031 136.480469 230.296875 C 140.921875 231.1875 145.292969 232.296875 149.660156 233.777344 C 156.175781 236.074219 162.765625 239.035156 169.132812 241.921875 C 183.054688 248.21875 197.421875 254.660156 212.453125 254.660156 C 215.414062 254.660156 218.375 254.363281 221.335938 253.84375 C 227.335938 252.734375 233.109375 250.363281 238.144531 246.882812 C 246.289062 241.40625 251.472656 234.148438 252.953125 226.300781 C 254.285156 219.265625 252.511719 212.15625 250.585938 204.679688 C 249.179688 199.125 247.769531 193.421875 247.695312 187.796875 C 247.621094 180.910156 249.472656 175.058594 253.324219 170.023438 C 255.988281 166.546875 259.542969 163.582031 263.023438 160.769531 C 266.949219 157.585938 271.09375 154.253906 273.910156 150.03125 C 280.203125 140.703125 279.242188 129.449219 277.390625 121.597656 C 276.054688 115.972656 273.984375 110.640625 271.167969 105.679688 Z M 272.796875 149.144531 C 270.058594 153.21875 266.058594 156.476562 262.210938 159.585938 C 258.65625 162.472656 255.027344 165.507812 252.214844 169.0625 C 248.140625 174.394531 246.214844 180.539062 246.289062 187.722656 C 246.363281 193.570312 247.84375 199.347656 249.25 204.976562 C 251.101562 212.378906 252.804688 219.265625 251.546875 226.003906 C 250.140625 233.410156 245.179688 240.367188 237.40625 245.625 C 232.515625 248.957031 226.964844 251.253906 221.1875 252.363281 C 203.34375 255.621094 186.3125 247.921875 169.875 240.515625 C 163.507812 237.628906 156.84375 234.59375 150.328125 232.371094 C 145.957031 230.964844 141.515625 229.78125 137 228.890625 C 134.183594 228.300781 131.222656 227.632812 128.335938 226.816406 C 125.078125 225.929688 118.929688 224.894531 114.339844 227.558594 C 112.933594 228.445312 111.601562 229.484375 110.492188 230.667969 C 108.417969 232.667969 106.417969 234.519531 103.53125 234.296875 C 100.273438 234.074219 97.605469 230.964844 95.976562 228.59375 C 84.054688 211.785156 79.242188 189.648438 82.277344 166.175781 C 84.574219 148.476562 92.128906 131.742188 103.457031 119.082031 C 113.378906 108.050781 123.003906 99.460938 133.074219 92.796875 C 134.257812 91.980469 135.445312 91.316406 136.554688 90.648438 C 141.292969 87.835938 146.328125 85.464844 151.511719 83.464844 C 156.695312 81.539062 162.027344 79.984375 167.429688 78.800781 C 173.949219 77.171875 180.539062 75.988281 187.128906 75.097656 C 193.570312 74.433594 200.011719 74.136719 206.453125 74.136719 C 208.824219 74.136719 211.117188 74.136719 213.414062 74.136719 C 215.710938 74.136719 217.632812 74.285156 219.484375 74.433594 C 223.113281 74.65625 226.667969 75.320312 230.222656 76.285156 C 235.257812 77.765625 240.144531 79.761719 244.808594 82.28125 C 248.511719 84.207031 252.066406 86.5 255.324219 89.167969 C 256.804688 90.351562 258.285156 91.609375 259.617188 92.945312 C 267.6875 100.867188 273.464844 110.863281 276.128906 121.820312 C 277.90625 129.449219 278.796875 140.332031 272.796875 149.144531 Z M 256.878906 108.34375 C 254.433594 103.902344 251.324219 99.828125 247.695312 96.351562 C 246.4375 95.164062 245.105469 94.054688 243.699219 92.945312 C 240.664062 90.574219 237.40625 88.574219 234 86.945312 C 229.703125 84.796875 225.113281 83.167969 220.449219 81.984375 C 217.191406 81.246094 213.933594 80.800781 210.601562 80.652344 C 208.898438 80.578125 207.046875 80.578125 205.121094 80.578125 C 203.269531 80.578125 201.269531 80.652344 198.828125 80.800781 C 192.976562 81.097656 187.203125 81.6875 181.5 82.652344 C 175.578125 83.6875 169.800781 85.242188 163.953125 86.945312 C 159.433594 88.128906 155.066406 89.6875 150.695312 91.460938 C 146.402344 93.3125 142.257812 95.460938 138.332031 97.980469 C 137.367188 98.570312 136.40625 99.238281 135.445312 99.902344 C 127.152344 105.902344 118.785156 113.675781 109.824219 123.671875 C 99.679688 135 93.386719 150.105469 92.273438 166.027344 C 90.941406 184.390625 95.460938 201.273438 104.863281 213.710938 C 106.34375 215.636719 108.640625 218.230469 111.601562 218.523438 C 114.339844 218.820312 116.191406 217.488281 117.96875 216.230469 C 118.859375 215.5625 119.746094 214.972656 120.707031 214.527344 C 123.671875 213.195312 127.667969 213.710938 130.484375 214.453125 C 133.667969 215.191406 136.925781 215.785156 140.183594 216.15625 C 143.8125 216.527344 147.4375 217.265625 150.992188 218.15625 C 158.546875 220.375 165.949219 224.078125 173.058594 227.632812 C 184.238281 233.261719 195.71875 239.035156 207.933594 239.035156 C 210.082031 239.035156 212.15625 238.886719 214.226562 238.515625 C 219.632812 237.554688 224.742188 235.257812 229.113281 231.925781 C 235.921875 226.746094 240.144531 219.636719 240.738281 212.453125 C 241.179688 206.824219 239.476562 201.050781 237.847656 195.496094 C 236.292969 190.238281 234.664062 184.835938 234.8125 179.429688 C 234.886719 173.949219 236.8125 168.617188 240.367188 164.398438 C 242.660156 161.585938 245.699219 159.066406 248.585938 156.695312 C 252.066406 153.808594 255.695312 150.921875 258.285156 147.144531 C 262.726562 140.777344 264.136719 131.964844 262.0625 122.414062 C 261.097656 117.453125 259.320312 112.714844 256.878906 108.34375 Z M 257.101562 146.257812 C 254.65625 149.8125 251.101562 152.699219 247.695312 155.511719 C 244.734375 157.957031 241.625 160.472656 239.253906 163.359375 C 235.480469 167.804688 233.40625 173.429688 233.332031 179.28125 C 233.257812 184.910156 234.886719 190.460938 236.441406 195.792969 C 238.144531 201.496094 239.699219 206.824219 239.253906 212.230469 C 238.664062 219.042969 234.664062 225.707031 228.222656 230.59375 C 224.078125 233.851562 219.1875 236 214.007812 236.886719 C 199.789062 239.257812 187.128906 232.890625 173.726562 226.152344 C 166.542969 222.523438 159.0625 218.746094 151.363281 216.601562 C 147.734375 215.636719 144.03125 214.972656 140.332031 214.527344 C 137.074219 214.15625 133.890625 213.5625 130.777344 212.824219 C 127.742188 212.082031 123.375 211.492188 120.042969 212.972656 C 119.003906 213.488281 117.96875 214.082031 117.007812 214.824219 C 115.304688 216.082031 113.824219 217.117188 111.675781 216.894531 C 109.304688 216.601562 107.230469 214.304688 105.972656 212.601562 C 96.71875 200.53125 92.347656 183.945312 93.683594 165.953125 C 94.792969 150.402344 100.9375 135.667969 110.859375 124.488281 C 119.746094 114.566406 128.039062 106.789062 136.257812 100.867188 C 137.222656 100.199219 138.183594 99.535156 139.070312 98.941406 C 142.921875 96.496094 146.996094 94.351562 151.214844 92.574219 C 155.4375 90.796875 159.804688 89.316406 164.246094 88.128906 C 170.097656 86.5 175.796875 84.945312 181.648438 83.910156 C 187.351562 82.949219 193.050781 82.355469 198.828125 82.058594 C 201.269531 81.910156 203.269531 81.835938 205.046875 81.835938 C 206.972656 81.835938 208.75 81.835938 210.453125 81.910156 C 213.710938 82.058594 216.894531 82.503906 220.003906 83.242188 C 224.59375 84.355469 229.039062 85.984375 233.257812 88.058594 C 236.589844 89.6875 239.773438 91.683594 242.734375 93.980469 C 244.070312 95.015625 245.402344 96.128906 246.585938 97.3125 C 250.140625 100.71875 253.175781 104.644531 255.546875 108.9375 C 257.914062 113.160156 259.617188 117.75 260.65625 122.488281 C 262.652344 131.816406 261.394531 140.183594 257.101562 146.257812 Z M 242.585938 111.085938 C 240.589844 107.234375 237.921875 103.753906 234.738281 100.792969 C 233.628906 99.757812 232.445312 98.792969 231.183594 97.832031 C 228.445312 95.832031 225.558594 94.128906 222.449219 92.796875 C 218.523438 91.09375 214.449219 89.832031 210.304688 89.019531 C 207.417969 88.5 204.527344 88.203125 201.566406 88.203125 C 200.011719 88.203125 198.382812 88.203125 196.753906 88.277344 C 195.125 88.351562 193.199219 88.5 191.273438 88.722656 C 186.164062 89.242188 181.128906 90.203125 176.09375 91.460938 C 171.058594 92.722656 166.023438 94.5 160.914062 96.277344 C 157.359375 97.460938 153.957031 98.867188 150.625 100.570312 C 147.292969 102.273438 144.105469 104.199219 141.070312 106.347656 C 140.40625 106.863281 139.589844 107.382812 138.851562 108.050781 C 130.484375 114.859375 123.078125 122.859375 117.523438 129.152344 C 108.566406 139.296875 103.753906 152.476562 103.898438 166.027344 C 104.121094 178.539062 108.121094 189.871094 115.15625 197.867188 C 116.339844 199.199219 117.894531 200.753906 119.820312 201.199219 C 121.449219 201.496094 123.078125 201.347656 124.558594 200.679688 C 125.152344 200.457031 125.816406 200.234375 126.410156 200.085938 C 128.039062 199.71875 130.261719 199.867188 133.148438 200.53125 C 136.40625 201.125 139.664062 201.421875 142.921875 201.421875 C 146.105469 201.496094 149.214844 201.789062 152.324219 202.308594 C 160.101562 204.011719 167.503906 208.308594 174.539062 212.527344 C 183.5 217.785156 192.753906 223.191406 202.898438 223.191406 C 204.304688 223.191406 205.714844 223.117188 207.121094 222.894531 C 211.933594 222.078125 216.449219 219.933594 220.078125 216.675781 C 225.632812 211.714844 228.816406 204.902344 228.445312 198.3125 C 228.222656 194.015625 226.667969 189.796875 225.113281 185.648438 C 223.335938 180.835938 221.484375 175.875 221.78125 170.839844 C 222.078125 166.398438 223.855469 162.398438 227.335938 158.546875 C 229.40625 156.402344 231.628906 154.402344 234 152.550781 C 237.109375 150.03125 240.292969 147.367188 242.660156 144.183594 C 246.734375 138.703125 248.140625 131.226562 246.808594 123.15625 C 245.992188 118.859375 244.585938 114.789062 242.585938 111.085938 Z M 241.402344 143.292969 C 239.183594 146.332031 236.070312 148.921875 233.035156 151.441406 C 230.59375 153.363281 228.296875 155.363281 226.222656 157.585938 C 222.519531 161.65625 220.597656 165.953125 220.300781 170.765625 C 219.929688 176.171875 221.855469 181.28125 223.707031 186.167969 C 225.261719 190.386719 226.742188 194.3125 226.964844 198.382812 C 227.261719 204.53125 224.296875 210.898438 219.117188 215.5625 C 215.710938 218.671875 211.488281 220.746094 206.898438 221.488281 C 195.570312 223.265625 185.71875 217.414062 175.28125 211.269531 C 168.097656 207.046875 160.621094 202.679688 152.621094 200.976562 C 149.4375 200.382812 146.179688 200.085938 142.996094 200.015625 C 139.8125 199.941406 136.628906 199.644531 133.445312 198.976562 C 131.816406 198.605469 130.113281 198.382812 128.410156 198.3125 C 127.667969 198.3125 126.855469 198.382812 126.113281 198.53125 C 125.449219 198.679688 124.707031 198.902344 124.113281 199.125 C 122.78125 199.570312 121.671875 199.941406 120.191406 199.644531 C 118.710938 199.347656 117.300781 197.941406 116.265625 196.753906 C 109.453125 189.054688 105.601562 178.097656 105.382812 165.878906 C 105.234375 152.699219 109.972656 139.960938 118.636719 130.039062 C 124.113281 123.820312 131.519531 115.898438 139.8125 109.160156 C 140.554688 108.566406 141.292969 107.976562 141.960938 107.53125 C 144.921875 105.382812 148.03125 103.457031 151.289062 101.828125 C 154.546875 100.199219 157.953125 98.792969 161.433594 97.609375 C 166.542969 95.832031 171.503906 94.128906 176.464844 92.871094 C 181.351562 91.609375 186.386719 90.722656 191.421875 90.203125 C 193.347656 89.980469 195.125 89.832031 196.828125 89.761719 C 198.53125 89.6875 200.085938 89.613281 201.566406 89.6875 C 204.378906 89.6875 207.269531 89.980469 210.082031 90.5 C 214.152344 91.242188 218.152344 92.5 221.929688 94.203125 C 224.890625 95.535156 227.777344 97.164062 230.371094 99.089844 C 231.554688 99.976562 232.738281 100.941406 233.777344 101.902344 C 236.8125 104.71875 239.402344 108.125 241.328125 111.75 C 243.253906 115.378906 244.660156 119.304688 245.328125 123.375 C 246.585938 131.078125 245.253906 138.113281 241.402344 143.292969 Z M 221.78125 105.234375 C 220.816406 104.347656 219.707031 103.53125 218.671875 102.792969 C 210.675781 97.238281 199.9375 94.867188 188.386719 96.128906 C 177.132812 97.3125 166.097656 101.902344 157.804688 105.828125 C 152.03125 108.417969 146.699219 111.972656 142.109375 116.417969 C 135.960938 122.339844 130.1875 128.929688 125.078125 134.78125 C 116.933594 144.035156 113.304688 155.734375 115.453125 166.175781 C 117.597656 176.761719 125.964844 185.203125 135.738281 186.757812 C 138.851562 187.128906 141.960938 187.128906 145.070312 186.832031 C 147.882812 186.539062 150.769531 186.539062 153.585938 186.832031 C 161.210938 187.796875 167.875 192.683594 174.390625 197.347656 C 181.5 202.53125 188.832031 207.789062 197.347656 207.789062 C 198.234375 207.789062 199.121094 207.714844 200.011719 207.640625 C 210.894531 205.714844 218.152344 195.421875 216.226562 184.539062 C 216.226562 184.464844 216.226562 184.464844 216.226562 184.390625 C 215.5625 181.28125 214.007812 178.316406 212.597656 175.429688 C 210.453125 171.0625 208.378906 166.988281 208.898438 162.546875 C 209.636719 156.769531 214.300781 152.996094 219.1875 148.921875 C 222.003906 146.625 224.890625 144.257812 227.113281 141.445312 C 235.554688 130.1875 231.257812 113.601562 221.78125 105.234375 Z M 225.78125 140.40625 C 223.707031 143.074219 220.890625 145.367188 218.152344 147.664062 C 213.191406 151.660156 208.15625 155.882812 207.34375 162.25 C 206.75 167.136719 208.972656 171.652344 211.191406 176.023438 C 212.597656 178.835938 214.082031 181.722656 214.746094 184.6875 C 216.523438 194.757812 209.859375 204.308594 199.789062 206.160156 C 190.753906 207.34375 183.203125 201.9375 175.28125 196.164062 C 168.617188 191.351562 161.804688 186.390625 153.808594 185.425781 C 152.546875 185.277344 151.289062 185.203125 150.03125 185.203125 C 148.328125 185.203125 146.625 185.277344 144.996094 185.425781 C 142.035156 185.722656 138.996094 185.722656 135.960938 185.351562 C 126.929688 183.945312 118.929688 175.800781 116.859375 165.953125 C 114.785156 156.105469 118.339844 144.777344 126.1875 135.890625 C 131.296875 130.113281 137.074219 123.523438 143.144531 117.675781 C 147.660156 113.378906 152.84375 109.898438 158.472656 107.382812 C 166.691406 103.53125 177.574219 99.015625 188.609375 97.832031 C 199.863281 96.644531 210.230469 98.867188 217.929688 104.199219 C 218.96875 104.9375 220.003906 105.679688 220.890625 106.566406 C 229.777344 114.269531 233.925781 129.890625 225.78125 140.40625 Z M 225.78125 140.40625 " fill-opacity="1" fill-rule="nonzero"/></svg>